<svg width="1440" height="1024" viewBox="0 0 1440 1024" fill="none" xmlns="http://www.w3.org/2000/svg">
<g id="footer-svg" clip-path="url(#clip0_1_2)">
<rect width="1440" height="1024" fill="white"/>
<g id="pikes-peak-ridge-line">
<path id="Vector 1 (Stroke)" fill-rule="evenodd" clip-rule="evenodd" d="M65.4347 478.747C63.7851 478.872 62.0868 479.002 60.4527 479.002C56.3778 479.002 52.3457 479.129 48.285 479.258L48.2768 479.258C44.2263 479.387 40.1474 479.516 36.0155 479.516C35.0122 479.516 33.1784 479.563 31.4248 479.758C30.5464 479.855 29.7228 479.986 29.0483 480.155C28.325 480.337 27.9572 480.519 27.8351 480.617C27.2716 481.067 26.6254 481.228 26.128 481.3C25.6903 481.363 25.2185 481.375 24.8453 481.384C24.7998 481.385 24.7558 481.386 24.7135 481.388C23.7538 481.414 23.3925 481.495 23.2049 481.646C22.8756 481.909 22.4106 482.101 22.103 482.221C21.7294 482.366 21.2961 482.509 20.873 482.634C20.4487 482.76 20.0132 482.875 19.6315 482.96C19.2973 483.034 18.8671 483.117 18.5236 483.117C17.6012 483.117 16.5137 483.674 15.0034 484.579C14.9087 484.635 14.8123 484.693 14.7146 484.752C14.1024 485.121 13.4355 485.522 12.7764 485.854C12.0099 486.24 11.1413 486.592 10.221 486.707C8.79165 486.886 7.30058 487.514 5.5589 488.29C5.46009 488.334 5.36042 488.378 5.25995 488.423C3.6725 489.132 1.88198 489.931 0.0328475 490.292C-0.780246 490.451 -1.568 489.92 -1.72665 489.107C-1.88531 488.294 -1.35478 487.506 -0.541684 487.348C0.960289 487.055 2.46096 486.386 4.14076 485.637C4.20636 485.608 4.27222 485.579 4.33837 485.549C6.0169 484.802 7.9071 483.973 9.84888 483.73C10.276 483.677 10.7899 483.495 11.4272 483.174C11.9773 482.897 12.5355 482.562 13.1552 482.189C13.2557 482.129 13.3579 482.067 13.4619 482.005C14.8174 481.193 16.6268 480.117 18.5236 480.117C18.517 480.117 18.5214 480.117 18.538 480.114C18.5843 480.108 18.7248 480.088 18.9817 480.031C19.2833 479.964 19.65 479.868 20.0193 479.758C20.39 479.648 20.7419 479.531 21.018 479.424C21.268 479.327 21.3614 479.274 21.3631 479.276C21.3633 479.277 21.3615 479.279 21.3578 479.282C22.4227 478.447 23.7873 478.411 24.5656 478.39C24.588 478.39 24.6099 478.389 24.6314 478.389C24.6718 478.388 24.7111 478.387 24.7493 478.386C25.161 478.374 25.4476 478.367 25.6986 478.331C25.8859 478.303 25.9588 478.271 25.9722 478.265C26.6221 477.75 27.5158 477.447 28.3185 477.245C29.1747 477.031 30.1453 476.881 31.094 476.776C32.9947 476.565 34.9468 476.516 36.0155 476.516C40.0949 476.516 44.1293 476.388 48.1899 476.26L48.2046 476.259C52.2529 476.131 56.3275 476.002 60.4527 476.002C61.9718 476.002 63.5733 475.88 65.2658 475.751L65.2958 475.749C66.9772 475.621 68.7439 475.487 70.4849 475.487H75.3723C76.5202 475.487 77.4193 475.85 78.0579 476.108L78.064 476.111C78.7501 476.388 79.092 476.516 79.488 476.516C80.3165 476.516 80.988 477.188 80.988 478.016C80.988 478.845 80.3165 479.516 79.488 479.516C78.4738 479.516 77.6308 479.173 77.0454 478.935C77.0094 478.921 76.9744 478.906 76.9404 478.893C76.3058 478.636 75.8854 478.487 75.3723 478.487H70.4849C68.8765 478.487 67.2229 478.611 65.5234 478.74L65.4347 478.747Z" fill="black" stroke="black" stroke-width="2" stroke-linecap="round"/>
<g id="Vector 2 (Stroke)">
<path fill-rule="evenodd" clip-rule="evenodd" d="M308.869 459.842C307.818 460.333 306.403 460.995 304.825 460.995C302.448 460.995 299.693 461.458 297.176 462.017C296.277 462.217 295.409 462.611 294.372 463.081C294.138 463.188 293.894 463.298 293.64 463.411C292.36 463.98 290.823 464.597 289.133 464.597C288.475 464.597 287.549 464.877 286.437 465.369C285.685 465.702 284.978 466.069 284.301 466.421C283.986 466.584 283.677 466.745 283.373 466.896C282.342 467.412 281.248 467.852 280.197 468.263C280.023 468.33 279.851 468.397 279.681 468.464C278.798 468.807 277.952 469.136 277.138 469.498C276.039 469.986 275.014 470.592 273.889 471.258C272.785 471.911 271.588 472.619 270.25 473.213C268.278 474.09 266.191 475.123 264.897 476.562C262.592 479.122 259.061 480.031 255.693 480.031C255.139 480.031 254.428 480.329 253.362 480.925C253.216 481.006 253.061 481.095 252.899 481.187C252.045 481.676 250.991 482.279 249.96 482.574C249.151 482.805 248.563 483.083 247.893 483.399C247.631 483.523 247.356 483.653 247.05 483.788C245.984 484.259 244.787 484.661 243.089 484.661C240.565 484.661 238.04 484.53 235.589 484.402L235.517 484.398C233.078 484.27 230.716 484.146 228.426 484.146C227.905 484.146 227.396 484.14 226.9 484.135C224.734 484.109 222.801 484.086 221.093 484.575C220.805 484.657 220.522 484.652 220.407 484.649C220.241 484.645 220.064 484.631 219.893 484.613C219.548 484.575 219.149 484.513 218.766 484.441C218.384 484.369 217.991 484.282 217.66 484.193C217.496 484.148 217.326 484.097 217.172 484.041L217.17 484.04C217.07 484.003 216.789 483.901 216.543 483.703C216.542 483.703 216.542 483.703 216.542 483.702C216.535 483.694 216.497 483.643 216 483.667C215.959 483.669 215.911 483.673 215.858 483.676C215.398 483.706 214.514 483.764 213.669 483.388C211.662 482.496 209.16 481.574 207.333 481.574C205.815 481.574 204.39 480.958 203.291 480.483L203.264 480.471C202.036 479.94 201.15 479.561 200.305 479.514C198.9 479.436 197.732 478.781 196.902 478.316C196.863 478.295 196.825 478.273 196.788 478.253C195.834 477.72 195.289 477.458 194.729 477.458H187.269C185.743 477.458 184.024 477.373 182.306 477.288C181.065 477.226 179.824 477.164 178.658 477.135C175.741 477.062 172.994 477.168 170.658 477.806C169.913 478.009 169.311 478.306 168.584 478.664C168.344 478.782 168.09 478.908 167.812 479.038C166.748 479.541 165.491 480.031 163.861 480.031C162.709 480.031 161.567 480.15 160.321 480.28C159.099 480.407 157.78 480.545 156.401 480.545C153.81 480.545 151.539 481.134 149.07 481.782L149.012 481.798C146.595 482.432 143.982 483.118 140.967 483.118C138.447 483.118 135.841 482.644 133.373 482.167C133.161 482.126 132.951 482.085 132.742 482.044C130.455 481.6 128.29 481.179 126.216 481.057C122.923 480.863 119.63 480.928 116.282 480.993C114.58 481.026 112.865 481.06 111.128 481.06C108.649 481.06 106.082 481.186 103.507 481.315L103.376 481.322C100.86 481.448 98.3344 481.574 95.951 481.574C94.979 481.574 94.1044 481.648 93.1801 481.725C92.7345 481.763 92.2774 481.801 91.7922 481.833C90.3577 481.926 88.8236 481.942 87.1369 481.567C87.1387 481.567 87.1396 481.568 87.1396 481.568C87.1396 481.568 87.1081 481.562 87.0326 481.561C86.9476 481.559 86.8373 481.563 86.6943 481.574C86.5053 481.587 86.3394 481.605 86.1491 481.626C86.0065 481.641 85.8502 481.658 85.6604 481.675C85.2843 481.71 84.8203 481.742 84.37 481.706C83.9435 481.671 83.3169 481.56 82.781 481.131C82.5113 480.915 81.9533 480.686 81.1019 480.477C80.5366 480.339 79.9878 480.24 79.449 480.144C79.1927 480.098 78.9387 480.052 78.6863 480.003C77.8732 479.844 77.3427 479.057 77.5013 478.243C77.66 477.43 78.4477 476.9 79.2608 477.058C79.4323 477.092 79.6376 477.129 79.8647 477.17C80.4406 477.273 81.1564 477.402 81.8151 477.563C82.6791 477.775 83.7438 478.104 84.5522 478.709C84.5688 478.711 84.5896 478.714 84.615 478.716C84.7904 478.73 85.0369 478.72 85.3828 478.688C85.4827 478.679 85.6074 478.666 85.742 478.652C85.9835 478.626 86.2569 478.598 86.4757 478.582C86.8279 478.556 87.3211 478.535 87.7877 478.638C89.0715 478.924 90.2805 478.925 91.5971 478.839C91.9701 478.815 92.3671 478.782 92.7817 478.747C93.7668 478.665 94.8515 478.574 95.951 478.574C98.2585 478.574 100.72 478.451 103.265 478.323L103.357 478.319C105.92 478.19 108.561 478.06 111.128 478.06C112.738 478.06 114.39 478.028 116.062 477.995C119.482 477.929 122.987 477.862 126.393 478.062C128.678 478.197 131.04 478.657 133.286 479.094C133.506 479.136 133.725 479.179 133.942 479.221C136.433 479.703 138.773 480.118 140.967 480.118C143.566 480.118 145.841 479.528 148.309 478.88L148.377 478.862C150.791 478.229 153.397 477.545 156.401 477.545C157.6 477.545 158.768 477.426 160.01 477.296L160.076 477.289C161.275 477.164 162.55 477.031 163.861 477.031C164.845 477.031 165.63 476.751 166.533 476.325C166.71 476.242 166.9 476.148 167.101 476.048C167.872 475.666 168.816 475.198 169.868 474.911C172.644 474.154 175.751 474.061 178.734 474.136C180.088 474.17 181.372 474.235 182.61 474.298C184.223 474.38 185.758 474.458 187.269 474.458H194.729C196.149 474.458 197.338 475.123 198.171 475.589C198.198 475.604 198.224 475.619 198.25 475.633C199.204 476.166 199.81 476.482 200.471 476.519C201.874 476.596 203.214 477.179 204.265 477.635C204.329 477.663 204.392 477.69 204.454 477.717C205.657 478.237 206.526 478.574 207.333 478.574C209.871 478.574 212.907 479.767 214.888 480.647C215.026 480.708 215.158 480.705 215.854 480.671C216.391 480.645 217.355 480.607 218.26 481.243C218.304 481.257 218.365 481.276 218.444 481.297C218.679 481.36 218.991 481.43 219.321 481.492C219.651 481.554 219.969 481.603 220.215 481.63C220.303 481.639 220.371 481.645 220.421 481.648C222.559 481.07 224.979 481.104 227.108 481.134C227.563 481.14 228.004 481.146 228.426 481.146C230.795 481.146 233.224 481.274 235.636 481.4L235.746 481.406C238.208 481.535 240.656 481.661 243.089 481.661C244.241 481.661 245.015 481.408 245.836 481.044C246.024 480.961 246.229 480.864 246.451 480.76C247.173 480.418 248.071 479.994 249.136 479.689C249.785 479.504 250.452 479.125 251.307 478.639C251.495 478.533 251.691 478.421 251.899 478.305C252.903 477.745 254.256 477.031 255.693 477.031C258.63 477.031 261.162 476.227 262.667 474.555C264.445 472.579 267.108 471.327 269.032 470.472C270.187 469.959 271.241 469.339 272.361 468.676L272.428 468.637C273.508 467.998 274.66 467.316 275.92 466.756C276.804 466.363 277.728 466.004 278.61 465.661C278.777 465.596 278.942 465.532 279.104 465.469C280.152 465.059 281.134 464.662 282.032 464.213C282.261 464.098 282.526 463.961 282.816 463.811C283.527 463.442 284.384 462.997 285.223 462.626C286.393 462.108 287.808 461.597 289.133 461.597C290.134 461.597 291.163 461.229 292.422 460.669C292.617 460.583 292.82 460.49 293.03 460.395C294.073 459.918 295.29 459.363 296.525 459.089C299.11 458.514 302.118 457.995 304.825 457.995C305.65 457.995 306.488 457.644 307.633 457.108C307.693 457.08 307.754 457.051 307.817 457.021C308.802 456.558 310.12 455.938 311.513 455.938C312.341 455.938 313.013 456.609 313.013 457.438C313.013 458.266 312.341 458.938 311.513 458.938C310.838 458.938 310.102 459.265 308.904 459.825L308.869 459.842ZM220.51 481.65C220.51 481.65 220.503 481.65 220.488 481.65C220.502 481.649 220.51 481.649 220.51 481.65Z" fill="black"/>
<path d="M84.4987 478.699C84.4988 478.699 84.5007 478.699 84.5042 478.7M304.825 460.995C306.403 460.995 307.818 460.333 308.869 459.842L308.904 459.825C310.102 459.265 310.838 458.938 311.513 458.938C312.341 458.938 313.013 458.266 313.013 457.438C313.013 456.609 312.341 455.938 311.513 455.938C310.12 455.938 308.802 456.558 307.817 457.021C307.754 457.051 307.693 457.08 307.633 457.108C306.488 457.644 305.65 457.995 304.825 457.995C302.118 457.995 299.11 458.514 296.525 459.089C295.29 459.363 294.073 459.918 293.03 460.395C292.82 460.49 292.617 460.583 292.422 460.669C291.163 461.229 290.134 461.597 289.133 461.597C287.808 461.597 286.393 462.108 285.223 462.626C284.384 462.997 283.527 463.442 282.816 463.811C282.526 463.961 282.261 464.098 282.032 464.213C281.134 464.662 280.152 465.059 279.104 465.469C278.942 465.532 278.777 465.596 278.61 465.661C277.728 466.004 276.804 466.363 275.92 466.756C274.66 467.316 273.508 467.998 272.428 468.637L272.361 468.676C271.241 469.339 270.187 469.959 269.032 470.472C267.108 471.327 264.445 472.579 262.667 474.555C261.162 476.227 258.63 477.031 255.693 477.031C254.256 477.031 252.903 477.745 251.899 478.305C251.691 478.421 251.495 478.533 251.307 478.639C250.452 479.125 249.785 479.504 249.136 479.689C248.071 479.994 247.173 480.418 246.451 480.76C246.229 480.864 246.024 480.961 245.836 481.044C245.015 481.408 244.241 481.661 243.089 481.661C240.656 481.661 238.208 481.535 235.746 481.406L235.636 481.4C233.224 481.274 230.795 481.146 228.426 481.146C228.004 481.146 227.563 481.14 227.108 481.134C224.979 481.104 222.559 481.07 220.421 481.648C220.371 481.645 220.303 481.639 220.215 481.63C219.969 481.603 219.651 481.554 219.321 481.492C218.991 481.43 218.679 481.36 218.444 481.297C218.365 481.276 218.304 481.257 218.26 481.243C217.355 480.607 216.391 480.645 215.854 480.671C215.158 480.705 215.026 480.708 214.888 480.647C212.907 479.767 209.871 478.574 207.333 478.574C206.526 478.574 205.657 478.237 204.454 477.717C204.392 477.69 204.329 477.663 204.265 477.635C203.214 477.179 201.874 476.596 200.471 476.519C199.81 476.482 199.204 476.166 198.25 475.633C198.224 475.619 198.198 475.604 198.171 475.589C197.338 475.123 196.149 474.458 194.729 474.458H187.269C185.758 474.458 184.223 474.38 182.61 474.298C181.372 474.235 180.088 474.17 178.734 474.136C175.751 474.061 172.644 474.154 169.868 474.911C168.816 475.198 167.872 475.666 167.101 476.048C166.9 476.148 166.71 476.242 166.533 476.325C165.63 476.751 164.845 477.031 163.861 477.031C162.55 477.031 161.275 477.164 160.076 477.289L160.01 477.296C158.768 477.426 157.6 477.545 156.401 477.545C153.397 477.545 150.791 478.229 148.377 478.862L148.309 478.88C145.841 479.528 143.566 480.118 140.967 480.118C138.773 480.118 136.433 479.703 133.942 479.221C133.725 479.179 133.506 479.136 133.286 479.094C131.04 478.657 128.678 478.197 126.393 478.062C122.987 477.862 119.482 477.929 116.062 477.995C114.39 478.028 112.738 478.06 111.128 478.06C108.561 478.06 105.92 478.19 103.357 478.319L103.265 478.323C100.72 478.451 98.2585 478.574 95.951 478.574C94.8515 478.574 93.7668 478.665 92.7817 478.747C92.3671 478.782 91.9701 478.815 91.5971 478.839C90.2805 478.925 89.0715 478.924 87.7877 478.638C87.3211 478.535 86.8279 478.556 86.4757 478.582C86.2569 478.598 85.9835 478.626 85.742 478.652C85.6074 478.666 85.4827 478.679 85.3828 478.688C85.0369 478.72 84.7904 478.73 84.615 478.716C84.5896 478.714 84.5688 478.711 84.5522 478.709C83.7438 478.104 82.6791 477.775 81.8151 477.563C81.1564 477.402 80.4406 477.273 79.8647 477.17C79.6376 477.129 79.4323 477.092 79.2608 477.058C78.4477 476.9 77.66 477.43 77.5013 478.243C77.3427 479.057 77.8732 479.844 78.6863 480.003C78.9387 480.052 79.1927 480.098 79.449 480.144C79.9878 480.24 80.5366 480.339 81.1019 480.477C81.9533 480.686 82.5113 480.915 82.781 481.131C83.3169 481.56 83.9435 481.671 84.37 481.706C84.8203 481.742 85.2843 481.71 85.6604 481.675C85.8502 481.658 86.0065 481.641 86.1491 481.626C86.3394 481.605 86.5053 481.587 86.6943 481.574C86.8373 481.563 86.9476 481.559 87.0326 481.561C87.1081 481.562 87.1396 481.568 87.1396 481.568C87.1396 481.568 87.1387 481.567 87.1369 481.567C88.8236 481.942 90.3577 481.926 91.7922 481.833C92.2774 481.801 92.7345 481.763 93.1801 481.725C94.1044 481.648 94.979 481.574 95.951 481.574C98.3344 481.574 100.86 481.448 103.376 481.322L103.507 481.315C106.082 481.186 108.649 481.06 111.128 481.06C112.865 481.06 114.58 481.026 116.282 480.993C119.63 480.928 122.923 480.863 126.216 481.057C128.29 481.179 130.455 481.6 132.742 482.044C132.951 482.085 133.161 482.126 133.373 482.167C135.841 482.644 138.447 483.118 140.967 483.118C143.982 483.118 146.595 482.432 149.012 481.798L149.07 481.782C151.539 481.134 153.81 480.545 156.401 480.545C157.78 480.545 159.099 480.407 160.321 480.28C161.567 480.15 162.709 480.031 163.861 480.031C165.491 480.031 166.748 479.541 167.812 479.038C168.09 478.908 168.344 478.782 168.584 478.664C169.311 478.306 169.913 478.009 170.658 477.806C172.994 477.168 175.741 477.062 178.658 477.135C179.824 477.164 181.065 477.226 182.306 477.288C184.024 477.373 185.743 477.458 187.269 477.458H194.729C195.289 477.458 195.834 477.72 196.788 478.253C196.825 478.273 196.863 478.295 196.902 478.316C197.732 478.781 198.9 479.436 200.305 479.514C201.15 479.561 202.036 479.94 203.264 480.471L203.291 480.483C204.39 480.958 205.815 481.574 207.333 481.574C209.16 481.574 211.662 482.496 213.669 483.388C214.514 483.764 215.398 483.706 215.858 483.676C215.911 483.673 215.959 483.669 216 483.667C216.497 483.643 216.535 483.694 216.542 483.702C216.542 483.703 216.542 483.703 216.543 483.703C216.789 483.901 217.07 484.003 217.17 484.04L217.172 484.041C217.326 484.097 217.496 484.148 217.66 484.193C217.991 484.282 218.384 484.369 218.766 484.441C219.149 484.513 219.548 484.575 219.893 484.613C220.064 484.631 220.241 484.645 220.407 484.649C220.522 484.652 220.805 484.657 221.093 484.575C222.801 484.086 224.734 484.109 226.9 484.135C227.396 484.14 227.905 484.146 228.426 484.146C230.716 484.146 233.078 484.27 235.517 484.398L235.589 484.402C238.04 484.53 240.565 484.661 243.089 484.661C244.787 484.661 245.984 484.259 247.05 483.788C247.356 483.653 247.631 483.523 247.893 483.399C248.563 483.083 249.151 482.805 249.96 482.574C250.991 482.279 252.045 481.676 252.899 481.187C253.061 481.095 253.216 481.006 253.362 480.925C254.428 480.329 255.139 480.031 255.693 480.031C259.061 480.031 262.592 479.122 264.897 476.562C266.191 475.123 268.278 474.09 270.25 473.213C271.588 472.619 272.785 471.911 273.889 471.258C275.014 470.592 276.039 469.986 277.138 469.498C277.952 469.136 278.798 468.807 279.681 468.464C279.851 468.397 280.023 468.33 280.197 468.263C281.248 467.852 282.342 467.412 283.373 466.896C283.677 466.745 283.986 466.584 284.301 466.421C284.978 466.069 285.685 465.702 286.437 465.369C287.549 464.877 288.475 464.597 289.133 464.597C290.823 464.597 292.36 463.98 293.64 463.411C293.894 463.298 294.138 463.188 294.372 463.081C295.409 462.611 296.277 462.217 297.176 462.017C299.693 461.458 302.448 460.995 304.825 460.995ZM220.51 481.65C220.51 481.65 220.503 481.65 220.488 481.65C220.502 481.649 220.51 481.649 220.51 481.65Z" stroke="black" stroke-width="2" stroke-linecap="round"/>
</g>
<g id="Vector 3 (Stroke)">
<path fill-rule="evenodd" clip-rule="evenodd" d="M569.059 403.262C569.43 404.003 569.129 404.904 568.388 405.275C567.291 405.823 566.091 406.089 565.11 406.306C564.903 406.352 564.705 406.396 564.52 406.44C563.379 406.71 562.49 407.013 561.72 407.673C561.506 407.856 561.312 408.02 561.133 408.171C559.979 409.146 559.496 409.555 558.884 410.777C558.281 411.984 557.712 412.712 556.879 413.228C556.545 413.435 556.193 413.591 555.906 413.717L555.846 413.744C555.528 413.884 555.204 414.03 554.813 414.247C549.384 417.263 543.263 418.295 537.107 418.295C534.169 418.295 531.216 418.422 528.244 418.55L528.174 418.553C525.236 418.681 522.278 418.809 519.358 418.809C517.888 418.809 516.58 418.91 515.713 419.392C515.549 419.483 515.348 419.617 515.08 419.806C515.027 419.843 514.971 419.882 514.913 419.923C514.698 420.075 514.45 420.25 514.204 420.412C513.618 420.796 512.729 421.323 511.724 421.379C510.534 421.445 509.471 421.74 508.225 422.091L508.192 422.101C506.985 422.441 505.608 422.828 504.012 422.922C503.014 422.981 501.851 423.279 500.579 423.682C500.118 423.828 499.617 423.997 499.111 424.168C498.328 424.432 497.531 424.701 496.847 424.896C496.1 425.11 495.348 425.476 494.452 425.912C494.16 426.054 493.853 426.203 493.525 426.357C492.313 426.928 490.824 427.555 489.261 427.555C488.913 427.555 488.54 427.684 487.867 427.958C487.836 427.971 487.803 427.985 487.769 427.999C487.202 428.232 486.343 428.584 485.403 428.584C485.005 428.584 484.349 428.705 483.599 428.935C482.866 429.16 482.185 429.444 481.758 429.681C479.027 431.199 475.739 431.177 473.087 431.16C472.812 431.158 472.544 431.156 472.284 431.156H467.911C467.538 431.156 467.069 431.038 466.76 430.954C466.378 430.851 465.938 430.713 465.515 430.565C465.093 430.418 464.662 430.253 464.302 430.092C464.125 430.013 463.941 429.924 463.776 429.829C463.69 429.779 463.484 429.661 463.288 429.471C463.17 429.434 462.968 429.392 462.665 429.361C462.052 429.297 461.241 429.295 460.347 429.331C459.464 429.365 458.557 429.434 457.759 429.495L457.6 429.507C456.899 429.561 456.231 429.613 455.821 429.613C455.282 429.613 454.713 429.623 454.128 429.634C452.892 429.656 451.584 429.68 450.336 429.611C449.992 429.591 448.974 429.475 448.028 429.326C447.55 429.251 447.049 429.16 446.634 429.06C446.431 429.011 446.212 428.951 446.013 428.877C445.915 428.841 445.791 428.789 445.663 428.719C445.56 428.662 445.331 428.526 445.132 428.278C445.129 428.275 445.127 428.272 445.124 428.268C445.123 428.269 445.122 428.269 445.122 428.269C444.899 428.323 444.518 428.532 443.98 428.973C443.551 429.326 443.139 429.725 442.728 430.123C442.646 430.203 442.564 430.282 442.483 430.36C442.251 430.584 442.002 430.818 441.77 431.01C441.592 431.158 441.223 431.455 440.77 431.584C440.565 431.643 440.307 431.721 440.024 431.807C439.535 431.955 438.97 432.127 438.463 432.262C437.627 432.486 436.65 432.7 435.757 432.7C435.759 432.7 435.743 432.7 435.699 432.702C435.659 432.704 435.607 432.707 435.542 432.712C435.412 432.721 435.247 432.735 435.055 432.754C434.673 432.79 434.205 432.842 433.744 432.902C433.279 432.962 432.841 433.028 432.511 433.091C432.406 433.111 432.322 433.129 432.257 433.144C431.665 433.633 431.183 434.105 430.67 434.608C430.394 434.878 430.109 435.157 429.793 435.453C428.871 436.314 427.819 437.169 426.334 437.829C425.944 438.003 425.756 438.137 425.499 438.32C425.357 438.421 425.194 438.537 424.964 438.684C424.297 439.108 423.55 439.388 422.381 439.388H418.008C416.455 439.388 415.054 439.252 413.734 439.124L413.726 439.124C412.389 438.994 411.138 438.873 409.776 438.873H400.258C398.733 438.873 397.418 438.293 396.441 437.863C396.276 437.79 396.12 437.721 395.974 437.66C394.936 437.226 394.121 437.001 393.07 437.277C393.059 437.287 393.044 437.302 393.026 437.321C392.92 437.432 392.791 437.604 392.623 437.858C392.543 437.98 392.462 438.109 392.374 438.248L392.357 438.275C392.276 438.403 392.189 438.542 392.101 438.676C391.924 438.946 391.686 439.292 391.401 439.577C390.607 440.371 389.319 441.598 387.722 441.953C385.276 442.497 383.004 443.688 381.283 445.408C379.432 447.259 376.826 448.8 374.767 449.923C374.189 450.238 373.581 450.28 373.121 450.257C372.653 450.235 372.19 450.137 371.81 450.045C371.624 450.001 371.439 449.952 371.272 449.908L371.246 449.902C371.067 449.854 370.907 449.813 370.756 449.777C370.435 449.701 370.255 449.677 370.162 449.677C368.74 449.677 367.377 449.799 365.935 449.928L365.917 449.93C364.498 450.057 363.002 450.192 361.416 450.192C360.167 450.192 359.023 450.416 357.763 450.675C357.718 450.685 357.672 450.694 357.627 450.703C356.44 450.948 355.116 451.22 353.699 451.22C353.02 451.22 352.35 451.621 351.216 452.431C351.161 452.47 351.104 452.511 351.046 452.552C350.099 453.233 348.74 454.208 347.099 454.305C346.024 454.368 344.939 454.678 343.663 455.042C343.62 455.055 343.577 455.067 343.534 455.079C342.274 455.439 340.805 455.851 339.294 455.851C338.069 455.851 336.708 455.968 335.227 456.096L335.153 456.102C333.672 456.23 332.084 456.365 330.548 456.365H321.802C321.238 456.365 320.966 456.467 320.679 456.604C320.62 456.632 320.546 456.67 320.46 456.714C320.115 456.892 319.568 457.174 318.899 457.365C318.167 457.574 317.479 457.852 316.695 458.167C316.525 458.236 316.35 458.306 316.17 458.378C315.191 458.768 314.09 459.178 312.829 459.424C312.016 459.583 311.228 459.052 311.07 458.239C310.911 457.426 311.441 456.638 312.254 456.48C313.231 456.289 314.118 455.966 315.06 455.591C315.212 455.53 315.368 455.467 315.527 455.403C316.314 455.085 317.177 454.737 318.075 454.48C318.434 454.378 318.636 454.274 318.931 454.123C319.06 454.057 319.206 453.982 319.391 453.894C320.012 453.599 320.723 453.365 321.802 453.365H330.548C331.934 453.365 333.395 453.243 334.895 453.113L335.035 453.101C336.463 452.978 337.937 452.851 339.294 452.851C340.323 452.851 341.402 452.568 342.711 452.194C342.786 452.173 342.863 452.151 342.94 452.129C344.127 451.789 345.506 451.393 346.923 451.31C347.63 451.268 348.312 450.817 349.473 449.989C349.499 449.97 349.525 449.952 349.552 449.933C350.528 449.235 351.948 448.22 353.699 448.22C354.806 448.22 355.868 448.002 357.141 447.74L357.159 447.737C358.402 447.481 359.824 447.192 361.416 447.192C362.854 447.192 364.225 447.07 365.666 446.94L365.704 446.937C367.116 446.81 368.599 446.677 370.162 446.677C370.623 446.677 371.087 446.772 371.449 446.858C371.639 446.903 371.831 446.953 372.007 446.999L372.023 447.004C372.198 447.05 372.358 447.091 372.515 447.129C372.848 447.21 373.089 447.252 373.267 447.261C373.324 447.264 373.361 447.262 373.383 447.261C375.416 446.149 377.656 444.793 379.162 443.287C381.321 441.128 384.118 439.681 387.071 439.024C387.708 438.883 388.434 438.302 389.28 437.456C389.33 437.406 389.426 437.285 389.59 437.033C389.667 436.916 389.746 436.791 389.835 436.649C389.922 436.511 390.019 436.358 390.119 436.207C390.313 435.912 390.56 435.561 390.852 435.254C391.133 434.958 391.565 434.586 392.158 434.416C394.234 433.823 395.847 434.355 397.132 434.892C397.357 434.987 397.566 435.077 397.762 435.161C398.742 435.584 399.412 435.873 400.258 435.873H409.776C411.287 435.873 412.663 436.007 413.97 436.133L414.015 436.137C415.35 436.267 416.617 436.388 418.008 436.388H422.381C422.963 436.388 423.154 436.279 423.354 436.152C423.4 436.123 423.466 436.076 423.549 436.017C423.866 435.793 424.433 435.391 425.115 435.088C426.173 434.618 426.946 434.007 427.744 433.261C427.963 433.056 428.197 432.827 428.446 432.584C429.06 431.983 429.766 431.293 430.561 430.657C430.756 430.501 430.953 430.419 431.038 430.385C431.148 430.341 431.256 430.307 431.348 430.281C431.532 430.229 431.741 430.184 431.947 430.144C432.362 430.065 432.868 429.99 433.359 429.926C434.303 429.804 435.378 429.7 435.757 429.7C436.239 429.7 436.9 429.575 437.689 429.364C438.177 429.234 438.609 429.102 439.04 428.97C439.292 428.893 439.544 428.817 439.806 428.74C439.821 428.729 439.839 428.714 439.861 428.696C439.995 428.586 440.169 428.424 440.402 428.2C440.469 428.134 440.541 428.065 440.616 427.992C441.026 427.594 441.542 427.093 442.077 426.655C442.685 426.155 443.501 425.577 444.41 425.355C444.893 425.237 445.452 425.207 446.029 425.387C446.486 425.53 446.882 425.782 447.213 426.112C447.249 426.122 447.29 426.133 447.338 426.144C447.637 426.216 448.047 426.292 448.496 426.363C449.405 426.506 450.307 426.604 450.502 426.615C451.644 426.679 452.753 426.658 453.92 426.636C454.533 426.625 455.163 426.613 455.821 426.613C456.111 426.613 456.683 426.569 457.505 426.506L457.529 426.504C458.324 426.443 459.283 426.37 460.229 426.333C461.165 426.296 462.146 426.29 462.977 426.377C463.39 426.42 463.821 426.491 464.213 426.617C464.521 426.716 464.96 426.896 465.322 427.256C465.369 427.28 465.437 427.313 465.528 427.354C465.783 427.468 466.128 427.602 466.501 427.732C466.871 427.861 467.242 427.977 467.543 428.058C467.695 428.099 467.815 428.128 467.902 428.145C467.929 428.151 467.949 428.154 467.962 428.156H472.284C472.526 428.156 472.766 428.157 473.003 428.158C475.819 428.165 478.297 428.172 480.301 427.059C480.958 426.694 481.846 426.335 482.719 426.067C483.576 425.805 484.564 425.584 485.403 425.584C485.7 425.584 486.036 425.465 486.735 425.18L486.792 425.157C487.382 424.916 488.266 424.555 489.261 424.555C490.093 424.555 491.045 424.209 492.248 423.643C492.477 423.535 492.72 423.417 492.972 423.293C493.915 422.833 494.997 422.305 496.023 422.012C496.67 421.827 497.316 421.608 498.02 421.369C498.533 421.195 499.077 421.01 499.673 420.822C500.987 420.405 502.447 420.009 503.836 419.927C505.079 419.854 506.171 419.553 507.412 419.204L507.481 419.184C508.673 418.848 510.02 418.469 511.557 418.384C511.697 418.376 512 418.27 512.559 417.903C512.758 417.773 512.948 417.639 513.156 417.492C513.221 417.446 513.287 417.399 513.356 417.351C513.625 417.162 513.94 416.945 514.256 416.77C515.89 415.862 517.954 415.809 519.358 415.809C522.212 415.809 525.116 415.683 528.077 415.555L528.114 415.553C531.076 415.425 534.093 415.295 537.107 415.295C542.948 415.295 548.516 414.313 553.356 411.625C553.872 411.338 554.299 411.148 554.631 411.001C554.984 410.844 555.154 410.768 555.299 410.678C555.472 410.57 555.725 410.388 556.201 409.436C557.1 407.637 558.033 406.855 559.225 405.854C559.4 405.707 559.58 405.555 559.768 405.395C561.1 404.253 562.571 403.818 563.828 403.521C564.099 403.456 564.355 403.399 564.598 403.344C565.553 403.13 566.311 402.959 567.047 402.591C567.788 402.221 568.689 402.521 569.059 403.262ZM465.241 427.209C465.242 427.209 465.25 427.214 465.265 427.225C465.247 427.214 465.24 427.209 465.241 427.209ZM463.361 429.498C463.36 429.499 463.355 429.496 463.346 429.491C463.356 429.496 463.361 429.498 463.361 429.498Z" fill="black"/>
<path d="M439.748 428.782C439.748 428.782 439.749 428.781 439.752 428.78M568.388 405.275C569.129 404.904 569.43 404.003 569.059 403.262C568.689 402.521 567.788 402.221 567.047 402.591C566.311 402.959 565.553 403.13 564.598 403.344C564.355 403.399 564.099 403.456 563.828 403.521C562.571 403.818 561.1 404.253 559.768 405.395C559.58 405.555 559.4 405.707 559.225 405.854C558.033 406.855 557.1 407.637 556.201 409.436C555.725 410.388 555.472 410.57 555.299 410.678C555.154 410.768 554.984 410.844 554.631 411.001C554.299 411.148 553.872 411.338 553.356 411.625C548.516 414.313 542.948 415.295 537.107 415.295C534.093 415.295 531.076 415.425 528.114 415.553L528.077 415.555C525.116 415.683 522.212 415.809 519.358 415.809C517.954 415.809 515.89 415.862 514.256 416.77C513.94 416.945 513.625 417.162 513.356 417.351C513.287 417.399 513.221 417.446 513.156 417.492C512.948 417.639 512.758 417.773 512.559 417.903C512 418.27 511.697 418.376 511.557 418.384C510.02 418.469 508.673 418.848 507.481 419.184L507.412 419.204C506.171 419.553 505.079 419.854 503.836 419.927C502.447 420.009 500.987 420.405 499.673 420.822C499.077 421.01 498.533 421.195 498.02 421.369C497.316 421.608 496.67 421.827 496.023 422.012C494.997 422.305 493.915 422.833 492.972 423.293C492.72 423.417 492.477 423.535 492.248 423.643C491.045 424.209 490.093 424.555 489.261 424.555C488.266 424.555 487.382 424.916 486.792 425.157L486.735 425.18C486.036 425.465 485.7 425.584 485.403 425.584C484.564 425.584 483.576 425.805 482.719 426.067C481.846 426.335 480.958 426.694 480.301 427.059C478.297 428.172 475.819 428.165 473.003 428.158C472.766 428.157 472.526 428.156 472.284 428.156H467.962C467.949 428.154 467.929 428.151 467.902 428.145C467.815 428.128 467.695 428.099 467.543 428.058C467.242 427.977 466.871 427.861 466.501 427.732C466.128 427.602 465.783 427.468 465.528 427.354C465.437 427.313 465.369 427.28 465.322 427.256C464.96 426.896 464.521 426.716 464.213 426.617C463.821 426.491 463.39 426.42 462.977 426.377C462.146 426.29 461.165 426.296 460.229 426.333C459.283 426.37 458.324 426.443 457.529 426.504L457.505 426.506C456.683 426.569 456.111 426.613 455.821 426.613C455.163 426.613 454.533 426.625 453.92 426.636C452.753 426.658 451.644 426.679 450.502 426.615C450.307 426.604 449.405 426.506 448.496 426.363C448.047 426.292 447.637 426.216 447.338 426.144C447.29 426.133 447.249 426.122 447.213 426.112C446.882 425.782 446.486 425.53 446.029 425.387C445.452 425.207 444.893 425.237 444.41 425.355C443.501 425.577 442.685 426.155 442.077 426.655C441.542 427.093 441.026 427.594 440.616 427.992C440.541 428.065 440.469 428.134 440.402 428.2C440.169 428.424 439.995 428.586 439.861 428.696C439.839 428.714 439.821 428.729 439.806 428.74C439.544 428.817 439.292 428.893 439.04 428.97C438.609 429.102 438.177 429.234 437.689 429.364C436.9 429.575 436.239 429.7 435.757 429.7C435.378 429.7 434.303 429.804 433.359 429.926C432.868 429.99 432.362 430.065 431.947 430.144C431.741 430.184 431.532 430.229 431.348 430.281C431.256 430.307 431.148 430.341 431.038 430.385C430.953 430.419 430.756 430.501 430.561 430.657C429.766 431.293 429.06 431.983 428.446 432.584C428.197 432.827 427.963 433.056 427.744 433.261C426.946 434.007 426.173 434.618 425.115 435.088C424.433 435.391 423.866 435.793 423.549 436.017C423.466 436.076 423.4 436.123 423.354 436.152C423.154 436.279 422.963 436.388 422.381 436.388H418.008C416.617 436.388 415.35 436.267 414.015 436.137L413.97 436.133C412.663 436.007 411.287 435.873 409.776 435.873H400.258C399.412 435.873 398.742 435.584 397.762 435.161C397.566 435.077 397.357 434.987 397.132 434.892C395.847 434.355 394.234 433.823 392.158 434.416C391.565 434.586 391.133 434.958 390.852 435.254C390.56 435.561 390.313 435.912 390.119 436.207C390.019 436.358 389.922 436.511 389.835 436.649C389.746 436.791 389.667 436.916 389.59 437.033C389.426 437.285 389.33 437.406 389.28 437.456C388.434 438.302 387.708 438.883 387.071 439.024C384.118 439.681 381.321 441.128 379.162 443.287C377.656 444.793 375.416 446.149 373.383 447.261C373.361 447.262 373.324 447.264 373.267 447.261C373.089 447.252 372.848 447.21 372.515 447.129C372.358 447.091 372.198 447.05 372.023 447.004L372.007 446.999C371.831 446.953 371.639 446.903 371.449 446.858C371.087 446.772 370.623 446.677 370.162 446.677C368.599 446.677 367.116 446.81 365.704 446.937L365.666 446.94C364.225 447.07 362.854 447.192 361.416 447.192C359.824 447.192 358.402 447.481 357.159 447.737L357.141 447.74C355.868 448.002 354.806 448.22 353.699 448.22C351.948 448.22 350.528 449.235 349.552 449.933C349.525 449.952 349.499 449.97 349.473 449.989C348.312 450.817 347.63 451.268 346.923 451.31C345.506 451.393 344.127 451.789 342.94 452.129C342.863 452.151 342.786 452.173 342.711 452.194C341.402 452.568 340.323 452.851 339.294 452.851C337.937 452.851 336.463 452.978 335.035 453.101L334.895 453.113C333.395 453.243 331.934 453.365 330.548 453.365H321.802C320.723 453.365 320.012 453.599 319.391 453.894C319.206 453.982 319.06 454.057 318.931 454.123C318.636 454.274 318.434 454.378 318.075 454.48C317.177 454.737 316.314 455.085 315.527 455.403C315.368 455.467 315.212 455.53 315.06 455.591C314.118 455.966 313.231 456.289 312.254 456.48C311.441 456.638 310.911 457.426 311.07 458.239C311.228 459.052 312.016 459.583 312.829 459.424C314.09 459.178 315.191 458.768 316.17 458.378C316.35 458.306 316.525 458.236 316.695 458.167C317.479 457.852 318.167 457.574 318.899 457.365C319.568 457.174 320.115 456.892 320.46 456.714C320.546 456.67 320.62 456.632 320.679 456.604C320.966 456.467 321.238 456.365 321.802 456.365H330.548C332.084 456.365 333.672 456.23 335.153 456.102L335.227 456.096C336.708 455.968 338.069 455.851 339.294 455.851C340.805 455.851 342.274 455.439 343.534 455.079C343.577 455.067 343.62 455.055 343.663 455.042C344.939 454.678 346.024 454.368 347.099 454.305C348.74 454.208 350.099 453.233 351.046 452.552C351.104 452.511 351.161 452.47 351.216 452.431C352.35 451.621 353.02 451.22 353.699 451.22C355.116 451.22 356.44 450.948 357.627 450.703C357.672 450.694 357.718 450.685 357.763 450.675C359.023 450.416 360.167 450.192 361.416 450.192C363.002 450.192 364.498 450.057 365.917 449.93L365.935 449.928C367.377 449.799 368.74 449.677 370.162 449.677C370.255 449.677 370.435 449.701 370.756 449.777C370.907 449.813 371.067 449.854 371.246 449.902L371.272 449.908C371.439 449.952 371.624 450.001 371.81 450.045C372.19 450.137 372.653 450.235 373.121 450.257C373.581 450.28 374.189 450.238 374.767 449.923C376.826 448.8 379.432 447.259 381.283 445.408C383.004 443.688 385.276 442.497 387.722 441.953C389.319 441.598 390.607 440.371 391.401 439.577C391.686 439.292 391.924 438.946 392.101 438.676C392.189 438.542 392.276 438.403 392.357 438.275L392.374 438.248C392.462 438.109 392.543 437.98 392.623 437.858C392.791 437.604 392.92 437.432 393.026 437.321C393.044 437.302 393.059 437.287 393.07 437.277C394.121 437.001 394.936 437.226 395.974 437.66C396.12 437.721 396.276 437.79 396.441 437.863C397.418 438.293 398.733 438.873 400.258 438.873H409.776C411.138 438.873 412.389 438.994 413.726 439.124L413.734 439.124C415.054 439.252 416.455 439.388 418.008 439.388H422.381C423.55 439.388 424.297 439.108 424.964 438.684C425.194 438.537 425.357 438.421 425.499 438.32C425.756 438.137 425.944 438.003 426.334 437.829C427.819 437.169 428.871 436.314 429.793 435.453C430.109 435.157 430.394 434.878 430.67 434.608C431.183 434.105 431.665 433.633 432.257 433.144C432.322 433.129 432.406 433.111 432.511 433.091C432.841 433.028 433.279 432.962 433.744 432.902C434.205 432.842 434.673 432.79 435.055 432.754C435.247 432.735 435.412 432.721 435.542 432.712C435.607 432.707 435.659 432.704 435.699 432.702C435.743 432.7 435.759 432.7 435.757 432.7C436.65 432.7 437.627 432.486 438.463 432.262C438.97 432.127 439.535 431.955 440.024 431.807C440.307 431.721 440.565 431.643 440.77 431.584C441.223 431.455 441.592 431.158 441.77 431.01C442.002 430.818 442.251 430.584 442.483 430.36C442.564 430.282 442.646 430.203 442.728 430.123C443.139 429.725 443.551 429.326 443.98 428.973C444.518 428.532 444.899 428.323 445.122 428.269C445.122 428.269 445.123 428.269 445.124 428.268C445.127 428.272 445.129 428.275 445.132 428.278C445.331 428.526 445.56 428.662 445.663 428.719C445.791 428.789 445.915 428.841 446.013 428.877C446.212 428.951 446.431 429.011 446.634 429.06C447.049 429.16 447.55 429.251 448.028 429.326C448.974 429.475 449.992 429.591 450.336 429.611C451.584 429.68 452.892 429.656 454.128 429.634C454.713 429.623 455.282 429.613 455.821 429.613C456.231 429.613 456.899 429.561 457.6 429.507L457.759 429.495C458.557 429.434 459.464 429.365 460.347 429.331C461.241 429.295 462.052 429.297 462.665 429.361C462.968 429.392 463.17 429.434 463.288 429.471C463.484 429.661 463.69 429.779 463.776 429.829C463.941 429.924 464.125 430.013 464.302 430.092C464.662 430.253 465.093 430.418 465.515 430.565C465.938 430.713 466.378 430.851 466.76 430.954C467.069 431.038 467.538 431.156 467.911 431.156H472.284C472.544 431.156 472.812 431.158 473.087 431.16C475.739 431.177 479.027 431.199 481.758 429.681C482.185 429.444 482.866 429.16 483.599 428.935C484.349 428.705 485.005 428.584 485.403 428.584C486.343 428.584 487.202 428.232 487.769 427.999C487.803 427.985 487.836 427.971 487.867 427.958C488.54 427.684 488.913 427.555 489.261 427.555C490.824 427.555 492.313 426.928 493.525 426.357C493.853 426.203 494.16 426.054 494.452 425.912C495.348 425.476 496.1 425.11 496.847 424.896C497.531 424.701 498.328 424.432 499.111 424.168C499.617 423.997 500.118 423.828 500.579 423.682C501.851 423.279 503.014 422.981 504.012 422.922C505.608 422.828 506.985 422.441 508.192 422.101L508.225 422.091C509.471 421.74 510.534 421.445 511.724 421.379C512.729 421.323 513.618 420.796 514.204 420.412C514.45 420.25 514.698 420.075 514.913 419.923C514.971 419.882 515.027 419.843 515.08 419.806C515.348 419.617 515.549 419.483 515.713 419.392C516.58 418.91 517.888 418.809 519.358 418.809C522.278 418.809 525.236 418.681 528.174 418.553L528.244 418.55C531.216 418.422 534.169 418.295 537.107 418.295C543.263 418.295 549.384 417.263 554.813 414.247C555.204 414.03 555.528 413.884 555.846 413.744L555.906 413.717C556.193 413.591 556.545 413.435 556.879 413.228C557.712 412.712 558.281 411.984 558.884 410.777C559.496 409.555 559.979 409.146 561.133 408.171C561.312 408.02 561.506 407.856 561.72 407.673C562.49 407.013 563.379 406.71 564.52 406.44C564.705 406.396 564.903 406.352 565.11 406.306C566.091 406.089 567.291 405.823 568.388 405.275ZM465.241 427.209C465.242 427.209 465.25 427.214 465.265 427.225C465.247 427.214 465.24 427.209 465.241 427.209ZM463.361 429.498C463.36 429.499 463.355 429.496 463.346 429.491C463.356 429.496 463.361 429.498 463.361 429.498Z" stroke="black" stroke-width="2" stroke-linecap="round"/>
</g>
<path id="Vector 4 (Stroke)" fill-rule="evenodd" clip-rule="evenodd" d="M643.192 393.843C642.343 393.97 641.379 394.115 640.258 394.115C639.512 394.115 638.796 394.101 638.096 394.087C636.758 394.06 635.479 394.035 634.172 394.112C633.579 394.147 633.011 394.315 632.216 394.55C632.155 394.568 632.092 394.587 632.028 394.605C631.187 394.853 630.146 395.144 628.939 395.144C627.007 395.144 625.188 395.497 623.24 395.886L623.113 395.912C621.242 396.285 619.231 396.687 617.107 396.687C615.506 396.687 614.071 397.393 612.261 398.322C612.222 398.342 612.183 398.362 612.144 398.382C610.468 399.243 608.433 400.288 606.045 400.288C604.813 400.288 603.56 400.917 601.846 401.835C601.798 401.861 601.75 401.886 601.702 401.912C600.159 402.74 598.244 403.768 596.097 403.887C594.276 403.988 592.434 404.527 590.388 405.126C590.301 405.152 590.213 405.177 590.125 405.203C588.048 405.81 585.752 406.462 583.409 406.462C580.877 406.462 578.436 406.332 576.037 406.204L576.009 406.202C573.589 406.074 571.21 405.947 568.747 405.947C567.918 405.947 567.247 405.276 567.247 404.447C567.247 403.619 567.918 402.947 568.747 402.947C571.3 402.947 573.754 403.078 576.161 403.206L576.168 403.207C578.589 403.336 580.96 403.462 583.409 403.462C585.26 403.462 587.159 402.945 589.283 402.324C589.404 402.288 589.526 402.252 589.649 402.216C591.602 401.644 593.752 401.013 595.93 400.892C597.361 400.812 598.73 400.101 600.429 399.191C600.469 399.169 600.509 399.148 600.549 399.126C602.08 398.305 603.975 397.288 606.045 397.288C607.646 397.288 609.08 396.582 610.891 395.653C610.93 395.633 610.969 395.613 611.008 395.593C612.684 394.732 614.719 393.687 617.107 393.687C618.932 393.687 620.693 393.335 622.652 392.944C624.57 392.562 626.668 392.144 628.939 392.144C629.679 392.144 630.36 391.969 631.18 391.728C631.254 391.706 631.33 391.683 631.408 391.66C632.138 391.442 633.038 391.174 633.996 391.117C635.415 391.034 636.905 391.062 638.316 391.089C638.986 391.102 639.639 391.115 640.258 391.115C641.134 391.115 641.897 391.003 642.76 390.874L642.813 390.866C643.647 390.741 644.585 390.6 645.659 390.6H648.746C649.258 390.6 649.789 390.708 650.258 391.031C650.721 391.349 650.955 391.764 651.082 392.033C651.138 392.153 651.186 392.274 651.216 392.349L651.223 392.365C651.254 392.444 651.272 392.487 651.287 392.52C651.798 392.918 652.237 393.129 652.59 393.188C652.885 393.237 653.203 393.199 653.611 392.872C654.726 391.981 656.04 391.711 657.181 391.627C657.923 391.572 658.764 391.594 659.475 391.613C659.789 391.621 660.078 391.629 660.322 391.629C661.15 391.629 661.822 392.301 661.822 393.129C661.822 393.958 661.15 394.629 660.322 394.629C659.906 394.629 659.529 394.618 659.173 394.608C658.557 394.591 658.001 394.575 657.401 394.619C656.524 394.683 655.916 394.87 655.485 395.215C654.421 396.067 653.245 396.338 652.097 396.147C651.021 395.968 650.088 395.403 649.353 394.815C648.945 394.488 648.72 394.107 648.584 393.822C648.547 393.744 648.514 393.667 648.486 393.6H645.659C644.817 393.6 644.073 393.711 643.205 393.841L643.192 393.843Z" fill="black" stroke="black" stroke-width="2" stroke-linecap="round"/>
<path id="Vector 5 (Stroke)" fill-rule="evenodd" clip-rule="evenodd" d="M661.599 395.084C660.984 395.113 660.359 395.144 659.807 395.144C658.979 395.144 658.307 394.472 658.307 393.644C658.307 392.815 658.979 392.144 659.807 392.144C660.28 392.144 660.819 392.118 661.437 392.088C661.554 392.083 661.673 392.077 661.796 392.071C662.544 392.036 663.376 392.003 664.203 392.023C665.771 392.059 667.705 392.279 669.09 393.387C670.381 394.42 672.174 395.138 673.786 395.233C676.136 395.371 678.306 396.465 680.184 397.463C680.381 397.567 680.574 397.67 680.764 397.772C682.507 398.704 684.032 399.519 685.599 399.868C687.814 400.36 690.833 401.274 692.787 402.326C693.322 402.615 693.73 402.676 694.366 402.771C694.439 402.782 694.515 402.793 694.594 402.805C695.415 402.932 696.399 403.14 697.513 404.006C697.672 404.13 697.907 404.269 698.244 404.468C698.351 404.532 698.468 404.601 698.597 404.678C698.83 404.818 699.092 404.979 699.33 405.148C699.551 405.306 699.845 405.534 700.078 405.825C700.077 405.823 700.095 405.848 700.164 405.889C700.235 405.931 700.345 405.981 700.506 406.031C700.838 406.136 701.275 406.206 701.816 406.258C702.162 406.291 702.484 406.311 702.821 406.332C703.035 406.346 703.255 406.36 703.492 406.378C704.032 406.418 704.663 406.48 705.207 406.635C705.97 406.853 706.846 407.283 707.586 407.646C707.777 407.739 707.959 407.829 708.127 407.909C709.103 408.372 709.772 408.607 710.225 408.607C711.054 408.607 711.725 409.278 711.725 410.107C711.725 410.935 711.054 411.607 710.225 411.607C709.006 411.607 707.762 411.056 706.841 410.619C706.571 410.49 706.321 410.369 706.09 410.256C705.4 409.919 704.864 409.657 704.383 409.519C704.164 409.457 703.809 409.41 703.267 409.369C703.103 409.357 702.913 409.345 702.711 409.332C702.334 409.307 701.913 409.28 701.532 409.244C700.924 409.186 700.241 409.092 699.609 408.894C698.991 408.701 698.273 408.363 697.748 407.715C697.746 407.714 697.705 407.674 697.591 407.593C697.453 407.495 697.275 407.383 697.056 407.252C696.988 407.212 696.912 407.167 696.831 407.119C696.468 406.905 695.998 406.629 695.671 406.375C695.134 405.957 694.728 405.861 694.138 405.771C694.071 405.76 694 405.75 693.926 405.739C693.289 405.648 692.385 405.517 691.365 404.968C689.768 404.108 687.06 403.266 684.948 402.796C682.951 402.352 681.045 401.329 679.368 400.428C679.167 400.321 678.97 400.215 678.777 400.112C676.851 399.088 675.221 398.323 673.61 398.228C671.338 398.094 668.96 397.125 667.216 395.729C666.672 395.294 665.648 395.057 664.134 395.022C663.419 395.005 662.678 395.033 661.935 395.068C661.824 395.073 661.712 395.078 661.599 395.084Z" fill="black" stroke="black" stroke-width="2" stroke-linecap="round"/>
<path id="Vector 6 (Stroke)" fill-rule="evenodd" clip-rule="evenodd" d="M707.217 410.299C707.394 409.49 708.194 408.978 709.003 409.156C710.081 409.392 711.138 409.84 712.037 410.22C712.227 410.301 712.41 410.378 712.585 410.45C713.669 410.896 714.534 411.179 715.37 411.179C715.83 411.179 716.323 411.299 716.72 411.419C717.149 411.548 717.605 411.722 718.037 411.908C718.86 412.262 719.777 412.74 720.308 413.165C721.422 414.056 722.607 414.986 723.86 415.698C725.116 416.412 726.32 416.838 727.46 416.838C728.806 416.838 730.637 417.266 732.267 417.846C733.866 418.415 735.607 419.248 736.609 420.25C736.816 420.456 737.217 420.611 738.166 420.758C738.275 420.775 738.395 420.792 738.523 420.81C739.288 420.918 740.365 421.07 741.25 421.512C741.852 421.814 742.426 422.163 742.902 422.453C743.104 422.576 743.289 422.688 743.451 422.782C744.043 423.124 744.581 423.379 745.277 423.533C745.858 423.662 746.581 423.678 747.448 423.643C747.716 423.632 748.015 423.615 748.327 423.597C748.918 423.563 749.553 423.526 750.096 423.526C751.035 423.526 751.971 423.676 752.746 423.803L752.765 423.806C753.588 423.94 754.204 424.041 754.727 424.041C755.318 424.041 755.836 424.239 756.226 424.442C756.625 424.649 756.991 424.913 757.299 425.161C757.611 425.41 757.905 425.676 758.15 425.898L758.187 425.932C758.43 426.152 758.605 426.311 758.75 426.427C759.258 426.833 759.811 427.206 760.411 427.608L760.47 427.647C761.034 428.025 761.649 428.437 762.209 428.885C762.934 429.465 763.701 429.97 764.542 430.523C764.94 430.785 765.355 431.058 765.789 431.355C767.074 432.233 768.433 433.263 769.531 434.636C769.961 435.173 771.081 435.891 772.544 436.496C773.98 437.091 775.355 437.417 776.077 437.417C776.905 437.417 777.577 438.088 777.577 438.917C777.577 439.745 776.905 440.417 776.077 440.417C774.776 440.417 772.973 439.921 771.396 439.268C769.847 438.627 768.119 437.673 767.189 436.51C766.375 435.492 765.314 434.664 764.096 433.832C763.759 433.601 763.399 433.364 763.029 433.12C762.13 432.529 761.171 431.897 760.335 431.228C759.875 430.86 759.352 430.51 758.748 430.105L758.741 430.101C758.155 429.708 757.498 429.267 756.876 428.77C756.654 428.592 756.41 428.371 756.196 428.176C756.175 428.157 756.154 428.138 756.134 428.12C755.887 427.896 755.654 427.687 755.423 427.502C755.189 427.314 754.996 427.183 754.843 427.104C754.761 427.061 754.713 427.045 754.696 427.04C753.931 427.037 753.109 426.902 752.402 426.786C752.355 426.779 752.309 426.771 752.263 426.764C751.461 426.633 750.757 426.526 750.096 426.526C749.625 426.526 749.163 426.554 748.645 426.584C748.315 426.604 747.962 426.625 747.57 426.641C746.656 426.678 745.607 426.68 744.626 426.462C743.522 426.216 742.688 425.806 741.95 425.38C741.67 425.217 741.427 425.069 741.196 424.928C740.78 424.674 740.402 424.443 739.908 424.196C739.498 423.99 738.994 423.916 738.21 423.799C738.054 423.776 737.887 423.751 737.707 423.723C736.818 423.585 735.467 423.35 734.488 422.371C733.982 421.865 732.779 421.212 731.261 420.672C729.773 420.143 728.313 419.838 727.46 419.838C725.592 419.838 723.86 419.15 722.377 418.306C720.892 417.461 719.537 416.39 718.434 415.508C718.225 415.341 717.609 414.99 716.851 414.663C716.492 414.509 716.145 414.379 715.852 414.29C715.706 414.246 715.585 414.216 715.492 414.198C715.405 414.181 715.367 414.179 715.367 414.179C715.367 414.179 715.368 414.179 715.37 414.179C713.897 414.179 712.557 413.683 711.443 413.225C711.208 413.128 710.984 413.034 710.769 412.943C709.884 412.571 709.141 412.258 708.36 412.086C707.551 411.908 707.039 411.109 707.217 410.299Z" fill="black" stroke="black" stroke-width="2" stroke-linecap="round"/>
<path id="Vector 7 (Stroke)" fill-rule="evenodd" clip-rule="evenodd" d="M777.681 440.351C777.135 440.383 776.568 440.417 776.077 440.417C775.249 440.417 774.577 439.745 774.577 438.917C774.577 438.088 775.249 437.417 776.077 437.417C776.472 437.417 776.934 437.39 777.487 437.357C777.585 437.351 777.686 437.345 777.79 437.339C778.452 437.301 779.205 437.264 779.956 437.281C781.353 437.312 783.212 437.528 784.454 438.771C784.882 439.198 785.432 439.658 786.003 440C786.597 440.357 787.075 440.503 787.395 440.503C788.165 440.503 789.405 440.505 790.637 440.588C791.8 440.667 793.206 440.83 794.178 441.262C794.766 441.523 795.429 441.549 796.46 441.568C796.482 441.569 796.505 441.569 796.527 441.57C797.442 441.587 798.709 441.61 799.899 442.205C800.64 442.576 800.94 443.477 800.57 444.218C800.199 444.959 799.298 445.259 798.557 444.889C798.037 444.629 797.422 444.587 796.403 444.568C796.36 444.567 796.317 444.566 796.272 444.565C795.374 444.55 794.141 444.528 792.96 444.003C792.531 443.813 791.622 443.661 790.434 443.581C789.316 443.506 788.169 443.503 787.395 443.503C786.296 443.503 785.265 443.056 784.46 442.573C783.631 442.075 782.89 441.449 782.333 440.892C781.993 440.551 781.234 440.31 779.889 440.28C779.268 440.266 778.619 440.297 777.962 440.335C777.869 440.34 777.776 440.345 777.681 440.351Z" fill="black" stroke="black" stroke-width="2" stroke-linecap="round"/>
<g id="Vector 8 (Stroke)">
<path fill-rule="evenodd" clip-rule="evenodd" d="M801.794 444.978C800.76 445.012 799.715 445.047 798.714 445.047C797.885 445.047 797.214 444.375 797.214 443.547C797.214 442.718 797.885 442.047 798.714 442.047C799.657 442.047 800.651 442.014 801.695 441.98L801.723 441.979C802.749 441.945 803.82 441.91 804.884 441.906C807.017 441.9 809.246 442.02 811.244 442.591C812.656 442.994 814.227 443.076 815.948 443.076C817.161 443.076 818.148 443.742 818.695 444.11C818.748 444.146 818.796 444.179 818.841 444.208C819.531 444.662 819.661 444.644 819.739 444.626C820.384 444.483 820.942 444.257 821.505 443.99C821.661 443.916 821.836 443.829 822.022 443.737C822.435 443.532 822.9 443.302 823.324 443.13C824.009 442.852 824.789 442.629 825.71 442.629C826.628 442.629 827.589 442.849 828.647 443.319C831.663 444.66 834.542 447.129 836.701 449.289C838.53 451.117 840.826 451.627 843.82 452.291C843.898 452.309 843.976 452.326 844.055 452.343C844.967 452.546 845.529 452.939 845.974 453.408C846.17 453.615 846.277 453.744 846.359 453.843C846.463 453.97 846.529 454.049 846.693 454.183C846.702 454.187 846.714 454.191 846.73 454.197C846.812 454.225 846.903 454.248 847.077 454.292L847.118 454.302C847.28 454.343 847.548 454.41 847.809 454.519C848.047 454.618 848.366 454.787 848.647 455.085C848.695 455.109 848.769 455.141 848.877 455.18C849.159 455.284 849.539 455.39 849.979 455.495C850.397 455.595 850.827 455.685 851.227 455.769L851.291 455.782C851.669 455.861 852.071 455.946 852.344 456.024C854.736 456.707 858.168 458.465 860.081 460.378C860.222 460.519 860.493 460.661 861.12 460.706C861.638 460.744 862.194 460.708 862.871 460.663C863.049 460.652 863.235 460.64 863.431 460.628C864.281 460.578 865.338 460.54 866.316 460.797C867.382 461.077 868.38 461.714 868.994 462.94C869.364 463.681 869.064 464.582 868.323 464.953C867.582 465.323 866.681 465.023 866.31 464.282C866.147 463.955 865.934 463.799 865.554 463.699C865.087 463.576 864.466 463.572 863.607 463.623C863.468 463.631 863.321 463.641 863.167 463.651C862.473 463.698 861.651 463.753 860.904 463.699C859.964 463.631 858.839 463.379 857.96 462.5C856.493 461.032 853.552 459.489 851.52 458.908C851.372 458.866 851.09 458.805 850.657 458.715L850.601 458.703C850.209 458.621 849.741 458.523 849.28 458.413C848.803 458.298 848.289 458.161 847.843 457.997C847.619 457.915 847.381 457.814 847.158 457.691C846.997 457.602 846.776 457.464 846.571 457.26C846.53 457.248 846.472 457.233 846.386 457.211C846.371 457.207 846.354 457.203 846.336 457.199C846.19 457.163 845.965 457.107 845.748 457.032C845.496 456.944 845.165 456.803 844.85 456.551C844.551 456.311 844.328 456.078 844.154 455.882C844.052 455.766 843.993 455.696 843.947 455.641C843.895 455.58 843.86 455.538 843.797 455.472C843.73 455.402 843.697 455.378 843.671 455.363C843.644 455.347 843.571 455.309 843.404 455.272C843.244 455.236 843.083 455.201 842.921 455.165C840.143 454.555 837.044 453.873 834.58 451.41C832.497 449.327 829.933 447.174 827.429 446.061C826.673 445.725 826.129 445.629 825.711 445.629C825.295 445.629 824.908 445.725 824.452 445.91C824.126 446.042 823.844 446.183 823.503 446.352C823.294 446.456 823.064 446.571 822.788 446.702C822.124 447.016 821.34 447.344 820.389 447.555C818.953 447.874 817.823 447.13 817.223 446.735C817.213 446.728 817.203 446.721 817.192 446.715C816.415 446.203 816.185 446.076 815.948 446.076C814.179 446.076 812.257 446 810.42 445.475C808.838 445.023 806.952 444.9 804.894 444.906C803.874 444.909 802.841 444.944 801.8 444.978L801.794 444.978Z" fill="black"/>
<path d="M848.592 455.055C848.592 455.055 848.596 455.057 848.603 455.062M798.714 445.047C799.715 445.047 800.76 445.012 801.794 444.978L801.8 444.978C802.841 444.944 803.874 444.909 804.894 444.906C806.952 444.9 808.838 445.023 810.42 445.475C812.257 446 814.179 446.076 815.948 446.076C816.185 446.076 816.415 446.203 817.192 446.715C817.203 446.721 817.213 446.728 817.223 446.735C817.823 447.13 818.953 447.874 820.389 447.555C821.34 447.344 822.124 447.016 822.788 446.702C823.064 446.571 823.294 446.456 823.503 446.352C823.844 446.183 824.126 446.042 824.452 445.91C824.908 445.725 825.295 445.629 825.711 445.629C826.129 445.629 826.673 445.725 827.429 446.061C829.933 447.174 832.497 449.327 834.58 451.41C837.044 453.873 840.143 454.555 842.921 455.165C843.083 455.201 843.244 455.236 843.404 455.272C843.571 455.309 843.644 455.347 843.671 455.363C843.697 455.378 843.73 455.402 843.797 455.472C843.86 455.538 843.895 455.58 843.947 455.641C843.993 455.696 844.052 455.766 844.154 455.882C844.328 456.078 844.551 456.311 844.85 456.551C845.165 456.803 845.496 456.944 845.748 457.032C845.965 457.107 846.19 457.163 846.336 457.199C846.354 457.203 846.371 457.207 846.386 457.211C846.472 457.233 846.53 457.248 846.571 457.26C846.776 457.464 846.997 457.602 847.158 457.691C847.381 457.814 847.619 457.915 847.843 457.997C848.289 458.161 848.803 458.298 849.28 458.413C849.741 458.523 850.209 458.621 850.601 458.703L850.657 458.715C851.09 458.805 851.372 458.866 851.52 458.908C853.552 459.489 856.493 461.032 857.96 462.5C858.839 463.379 859.964 463.631 860.904 463.699C861.651 463.753 862.473 463.698 863.167 463.651C863.321 463.641 863.468 463.631 863.607 463.623C864.466 463.572 865.087 463.576 865.554 463.699C865.934 463.799 866.147 463.955 866.31 464.282C866.681 465.023 867.582 465.323 868.323 464.953C869.064 464.582 869.364 463.681 868.994 462.94C868.38 461.714 867.382 461.077 866.316 460.797C865.338 460.54 864.281 460.578 863.431 460.628C863.235 460.64 863.049 460.652 862.871 460.663C862.194 460.708 861.638 460.744 861.12 460.706C860.493 460.661 860.222 460.519 860.081 460.378C858.168 458.465 854.736 456.707 852.344 456.024C852.071 455.946 851.669 455.861 851.291 455.782L851.227 455.769C850.827 455.685 850.397 455.595 849.979 455.495C849.539 455.39 849.159 455.284 848.877 455.18C848.769 455.141 848.695 455.109 848.647 455.085C848.366 454.787 848.047 454.618 847.809 454.519C847.548 454.41 847.28 454.343 847.118 454.302L847.077 454.292C846.903 454.248 846.812 454.225 846.73 454.197C846.714 454.191 846.702 454.187 846.693 454.183C846.529 454.049 846.463 453.97 846.359 453.843C846.277 453.744 846.17 453.615 845.974 453.408C845.529 452.939 844.967 452.546 844.055 452.343C843.976 452.326 843.898 452.309 843.82 452.291C840.826 451.627 838.53 451.117 836.701 449.289C834.542 447.129 831.663 444.66 828.647 443.319C827.589 442.849 826.628 442.629 825.71 442.629C824.789 442.629 824.009 442.852 823.324 443.13C822.9 443.302 822.435 443.532 822.022 443.737C821.836 443.829 821.661 443.916 821.505 443.99C820.942 444.257 820.384 444.483 819.739 444.626C819.661 444.644 819.531 444.662 818.841 444.208C818.796 444.179 818.748 444.146 818.695 444.11C818.148 443.742 817.161 443.076 815.948 443.076C814.227 443.076 812.656 442.994 811.244 442.591C809.246 442.02 807.017 441.9 804.884 441.906C803.82 441.91 802.749 441.945 801.723 441.979L801.695 441.98C800.651 442.014 799.657 442.047 798.714 442.047C797.885 442.047 797.214 442.718 797.214 443.547C797.214 444.375 797.885 445.047 798.714 445.047Z" stroke="black" stroke-width="2" stroke-linecap="round"/>
</g>
<path id="Vector 9 (Stroke)" fill-rule="evenodd" clip-rule="evenodd" d="M866.272 462.51C866.596 461.748 867.476 461.392 868.239 461.716C869.1 462.082 869.924 462.542 870.655 462.95C870.801 463.032 870.943 463.111 871.081 463.187C871.953 463.668 872.697 464.044 873.438 464.255C873.909 464.39 874.637 464.602 875.352 464.863C876.014 465.105 876.857 465.455 877.442 465.921C877.447 465.923 877.517 465.962 877.713 466.001C877.956 466.048 878.256 466.072 878.664 466.096C878.708 466.098 878.753 466.101 878.8 466.103C879.147 466.123 879.57 466.147 879.969 466.202C880.42 466.265 880.98 466.384 881.5 466.673C882.471 467.213 884.638 467.97 885.842 468.314C888.947 469.201 892.179 469.645 895.517 469.83C896.463 469.883 897.342 470.186 897.998 470.413C898.041 470.427 898.082 470.442 898.122 470.456C898.87 470.713 899.354 470.857 899.806 470.857C900.399 470.857 901.031 470.677 901.933 470.406C901.955 470.399 901.977 470.393 902 470.386C902.807 470.143 903.852 469.828 904.951 469.828C905.801 469.828 906.733 469.464 907.939 468.875C908.105 468.795 908.277 468.708 908.456 468.619C909.452 468.122 910.644 467.526 911.828 467.263C912.804 467.046 913.774 466.441 915.017 465.665C915.137 465.59 915.259 465.514 915.384 465.436C916.644 464.653 918.299 463.655 920.128 463.655C921.743 463.655 923.242 463.532 924.794 463.402L924.847 463.398C926.369 463.271 927.949 463.14 929.646 463.14C931.894 463.14 933.472 464.347 934.616 465.221L934.652 465.249C935.916 466.216 936.653 466.741 937.62 466.741C938.448 466.741 939.12 467.413 939.12 468.241C939.12 469.07 938.448 469.741 937.62 469.741C935.573 469.741 934.076 468.59 932.996 467.76C932.939 467.716 932.884 467.674 932.83 467.632C931.621 466.708 930.782 466.14 929.646 466.14C928.074 466.14 926.599 466.263 925.045 466.392L925.043 466.392C923.502 466.52 921.886 466.655 920.128 466.655C919.284 466.655 918.334 467.135 916.967 467.985C916.839 468.064 916.707 468.147 916.57 468.233C915.424 468.955 913.994 469.855 912.479 470.191C911.686 470.368 910.886 470.764 909.88 471.263C909.68 471.362 909.473 471.465 909.255 471.571C908.064 472.153 906.568 472.828 904.951 472.828C904.338 472.828 903.691 473.01 902.797 473.279C902.767 473.288 902.737 473.297 902.707 473.306C901.91 473.546 900.879 473.857 899.806 473.857C898.79 473.857 897.857 473.537 897.171 473.301L897.148 473.293C896.378 473.029 895.862 472.854 895.35 472.826C891.859 472.632 888.395 472.163 885.018 471.198C883.773 470.843 881.329 470.01 880.043 469.295C879.995 469.269 879.859 469.216 879.556 469.174C879.287 469.136 878.996 469.12 878.631 469.099C878.585 469.096 878.538 469.094 878.49 469.091C878.095 469.068 877.604 469.037 877.135 468.944C876.67 468.853 876.085 468.677 875.575 468.269C875.409 468.136 874.98 467.921 874.323 467.681C873.716 467.46 873.077 467.272 872.613 467.14C871.518 466.827 870.516 466.302 869.632 465.814C869.467 465.723 869.308 465.634 869.151 465.547C868.423 465.141 867.765 464.774 867.065 464.477C866.303 464.153 865.948 463.272 866.272 462.51Z" fill="black" stroke="black" stroke-width="2" stroke-linecap="round"/>
<g id="Vector 10 (Stroke)">
<path fill-rule="evenodd" clip-rule="evenodd" d="M951.419 467.476C949.923 467.411 948.58 467.428 947.463 467.676C946.81 467.821 946.6 468.012 946.104 468.462C945.869 468.675 945.571 468.946 945.131 469.298C944.774 469.583 944.367 469.717 944.079 469.789C943.766 469.867 943.432 469.911 943.114 469.937C942.477 469.988 941.752 469.977 941.08 469.946C940.4 469.915 939.727 469.862 939.188 469.817L939.173 469.816C938.595 469.769 938.263 469.741 938.134 469.741C937.306 469.741 936.634 469.07 936.634 468.241C936.634 467.413 937.306 466.741 938.134 466.741C938.394 466.741 938.838 466.778 939.279 466.815C939.331 466.819 939.382 466.823 939.434 466.827C939.972 466.872 940.597 466.921 941.217 466.949C941.845 466.978 942.423 466.983 942.874 466.946C943.098 466.928 943.254 466.903 943.349 466.879C943.467 466.779 943.593 466.664 943.728 466.541C944.402 465.922 945.323 465.079 946.812 464.748C948.336 464.409 950.01 464.412 951.549 464.479C952.158 464.506 952.733 464.541 953.283 464.575C954.204 464.631 955.056 464.683 955.883 464.683H964.372C966.219 464.683 967.552 465.083 968.728 465.457C968.789 465.477 968.849 465.496 968.908 465.515C969.99 465.861 970.911 466.155 972.177 466.229C977.453 466.54 983.263 466.741 988.809 466.741C991.166 466.741 992.464 468.425 993.277 469.478L993.298 469.505C994.278 470.774 994.726 471.296 995.426 471.383C995.889 471.441 996.318 471.661 996.576 471.805C996.885 471.977 997.203 472.19 997.493 472.402C998.034 472.799 998.655 473.324 998.984 473.735C998.986 473.738 998.988 473.74 998.989 473.741C998.99 473.742 999.006 473.752 999.049 473.766C999.162 473.801 999.312 473.822 999.632 473.851C999.65 473.853 999.669 473.855 999.689 473.856C999.946 473.879 1000.39 473.919 1000.8 474.058C1001.33 474.235 1001.9 474.597 1002.24 475.288C1002.61 476.028 1002.31 476.929 1001.57 477.3C1000.92 477.626 1000.14 477.432 999.712 476.876C999.619 476.863 999.515 476.853 999.358 476.839C999.335 476.837 999.31 476.834 999.284 476.832C998.728 476.784 997.495 476.676 996.641 475.609C996.642 475.61 996.639 475.607 996.632 475.599C996.629 475.595 996.625 475.591 996.62 475.585C996.604 475.568 996.583 475.546 996.555 475.518C996.498 475.462 996.425 475.394 996.337 475.316C996.16 475.161 995.944 474.986 995.72 474.823C995.494 474.657 995.283 474.519 995.114 474.425C995.046 474.387 994.997 474.362 994.964 474.348C992.992 474.06 991.827 472.526 991.088 471.554C991.03 471.478 990.975 471.406 990.923 471.338C990.017 470.164 989.544 469.741 988.809 469.741C983.195 469.741 977.325 469.537 972.001 469.224C970.348 469.127 969.105 468.728 968.037 468.386C967.963 468.362 967.89 468.339 967.818 468.316C966.715 467.965 965.741 467.683 964.372 467.683H955.883C954.976 467.683 953.95 467.621 952.955 467.561C952.427 467.529 951.907 467.498 951.419 467.476Z" fill="black"/>
<path d="M994.929 474.333C994.929 474.333 994.931 474.334 994.935 474.336M943.411 466.861C943.411 466.861 943.408 466.862 943.402 466.864M947.463 467.676C948.58 467.428 949.923 467.411 951.419 467.476C951.907 467.498 952.427 467.529 952.955 467.561C953.95 467.621 954.976 467.683 955.883 467.683H964.372C965.741 467.683 966.715 467.965 967.818 468.316C967.89 468.339 967.963 468.362 968.037 468.386C969.105 468.728 970.348 469.127 972.001 469.224C977.325 469.537 983.195 469.741 988.809 469.741C989.544 469.741 990.017 470.164 990.923 471.338C990.975 471.406 991.03 471.478 991.088 471.554C991.827 472.526 992.992 474.06 994.964 474.348C994.997 474.362 995.046 474.387 995.114 474.425C995.283 474.519 995.494 474.657 995.72 474.823C995.944 474.986 996.16 475.161 996.337 475.316C996.425 475.394 996.498 475.462 996.555 475.518C996.583 475.546 996.604 475.568 996.62 475.585C996.625 475.591 996.629 475.595 996.632 475.599C996.639 475.607 996.642 475.61 996.641 475.609C997.495 476.676 998.728 476.784 999.284 476.832C999.31 476.834 999.335 476.837 999.358 476.839C999.515 476.853 999.619 476.863 999.712 476.876C1000.14 477.432 1000.92 477.626 1001.57 477.3C1002.31 476.929 1002.61 476.028 1002.24 475.288C1001.9 474.597 1001.33 474.235 1000.8 474.058C1000.39 473.919 999.946 473.879 999.689 473.856C999.669 473.855 999.65 473.853 999.632 473.851C999.312 473.822 999.162 473.801 999.049 473.766C999.006 473.752 998.99 473.742 998.989 473.741C998.988 473.74 998.986 473.738 998.984 473.735C998.655 473.324 998.034 472.799 997.493 472.402C997.203 472.19 996.885 471.977 996.576 471.805C996.318 471.661 995.889 471.441 995.426 471.383C994.726 471.296 994.278 470.774 993.298 469.505L993.277 469.478C992.464 468.425 991.166 466.741 988.809 466.741C983.263 466.741 977.453 466.54 972.177 466.229C970.911 466.155 969.99 465.861 968.908 465.515C968.849 465.496 968.789 465.477 968.728 465.457C967.552 465.083 966.219 464.683 964.372 464.683H955.883C955.056 464.683 954.204 464.631 953.283 464.575C952.733 464.541 952.158 464.506 951.549 464.479C950.01 464.412 948.336 464.409 946.812 464.748C945.323 465.079 944.402 465.922 943.728 466.541C943.593 466.664 943.467 466.779 943.349 466.879C943.254 466.903 943.098 466.928 942.874 466.946C942.423 466.983 941.845 466.978 941.217 466.949C940.597 466.921 939.972 466.872 939.434 466.827C939.382 466.823 939.331 466.819 939.279 466.815C938.838 466.778 938.394 466.741 938.134 466.741C937.306 466.741 936.634 467.413 936.634 468.241C936.634 469.07 937.306 469.741 938.134 469.741C938.263 469.741 938.595 469.769 939.173 469.816L939.188 469.817C939.727 469.862 940.4 469.915 941.08 469.946C941.752 469.977 942.477 469.988 943.114 469.937C943.432 469.911 943.766 469.867 944.079 469.789C944.367 469.717 944.774 469.583 945.131 469.298C945.571 468.946 945.869 468.675 946.104 468.462C946.6 468.012 946.81 467.821 947.463 467.676Z" stroke="black" stroke-width="2" stroke-linecap="round"/>
</g>
<g id="Vector 11 (Stroke)">
<path fill-rule="evenodd" clip-rule="evenodd" d="M1041.22 470.511C1039.77 470.638 1038.25 470.77 1036.65 470.77H1027.39C1025.99 470.77 1025.01 470.965 1023.6 471.278C1023.08 471.395 1022.31 471.574 1021.57 471.784C1020.79 472.005 1020.18 472.22 1019.89 472.382C1019.41 472.651 1018.87 472.828 1018.4 472.963C1018.16 473.032 1017.92 473.097 1017.69 473.157L1017.65 473.166C1017.43 473.224 1017.22 473.279 1017.02 473.337C1016.06 473.606 1015.63 473.841 1015.45 474.066C1015.17 474.411 1014.8 474.694 1014.49 474.905C1014.16 475.132 1013.78 475.345 1013.41 475.532C1012.7 475.893 1011.87 476.228 1011.26 476.365C1009.41 476.776 1007.31 476.773 1005.36 476.688C1004.59 476.654 1003.86 476.61 1003.16 476.567C1001.98 476.496 1000.9 476.429 999.87 476.429C999.042 476.429 998.37 475.758 998.37 474.929C998.37 474.101 999.042 473.429 999.87 473.429C1000.97 473.429 1002.24 473.505 1003.48 473.581C1004.17 473.622 1004.84 473.662 1005.49 473.69C1007.41 473.774 1009.17 473.756 1010.61 473.437C1010.88 473.376 1011.45 473.163 1012.05 472.857C1012.34 472.71 1012.6 472.56 1012.81 472.421C1013.01 472.287 1013.09 472.207 1013.1 472.193C1013.1 472.192 1013.1 472.191 1013.1 472.192C1013.95 471.132 1015.3 470.705 1016.2 470.45C1016.43 470.384 1016.67 470.323 1016.88 470.266L1016.93 470.255C1017.16 470.194 1017.37 470.138 1017.57 470.08C1017.98 469.961 1018.26 469.858 1018.43 469.76C1019.06 469.41 1019.98 469.117 1020.75 468.897C1021.57 468.665 1022.4 468.472 1022.95 468.349C1024.4 468.027 1025.65 467.77 1027.39 467.77H1036.65C1038.11 467.77 1039.52 467.648 1041.01 467.519L1041.02 467.518C1042.48 467.39 1044.03 467.256 1045.66 467.256C1048.67 467.256 1050.38 468.265 1052.16 469.316C1052.61 469.586 1053.07 469.858 1053.56 470.117C1055.96 471.389 1058.61 472.115 1061.46 472.868C1061.55 472.893 1061.64 472.918 1061.74 472.943C1064.44 473.659 1067.32 474.422 1069.99 475.76C1070.41 475.97 1070.99 476.195 1071.7 476.457C1071.88 476.525 1072.08 476.596 1072.28 476.668C1072.81 476.865 1073.4 477.077 1073.96 477.299C1074.74 477.605 1075.54 477.953 1076.26 478.357C1076.96 478.751 1077.69 479.254 1078.21 479.909C1078.68 480.497 1079.8 481.346 1081.16 482.067C1082.54 482.797 1083.82 483.204 1084.53 483.204C1085.38 483.204 1086.31 483.433 1087.11 483.702C1087.93 483.977 1088.73 484.335 1089.34 484.679C1090.02 485.053 1090.62 485.402 1091.2 485.739L1091.22 485.751C1091.8 486.085 1092.35 486.405 1092.95 486.737C1093.27 486.92 1093.63 486.971 1094.32 487.074C1094.38 487.083 1094.45 487.092 1094.51 487.101C1095.25 487.21 1096.3 487.39 1097.27 488.163C1097.43 488.29 1097.87 488.489 1098.6 488.648C1099.27 488.795 1099.97 488.863 1100.45 488.863C1104.29 488.863 1107.66 488.839 1110.87 487.921C1111.78 487.659 1112.74 487.639 1113.61 487.689C1114.29 487.728 1115.01 487.819 1115.67 487.902C1115.84 487.923 1116 487.944 1116.16 487.963C1117.89 488.173 1119.02 488.192 1119.78 487.766C1122.09 486.487 1125.74 484.893 1128.42 484.298C1129.61 484.032 1130.63 483.635 1131.74 483.197C1132.1 483.059 1132.46 482.916 1132.85 482.772C1134.4 482.191 1136.12 481.661 1138.26 481.661C1138.77 481.661 1139.3 481.509 1140.08 481.255C1140.12 481.242 1140.15 481.23 1140.19 481.217C1140.89 480.988 1141.81 480.69 1142.81 480.634C1142.92 480.628 1142.97 480.611 1142.98 480.605C1143 480.599 1143 480.594 1143.02 480.584C1143.06 480.546 1143.14 480.453 1143.29 480.159C1143.32 480.114 1143.34 480.056 1143.37 479.989C1143.63 479.457 1144.18 478.319 1145.37 477.789C1147.12 477.012 1149.16 477.192 1150.82 477.438C1151.33 477.514 1151.88 477.61 1152.4 477.7C1152.71 477.755 1153.01 477.808 1153.28 477.853C1154.06 477.979 1154.71 478.06 1155.24 478.06C1157.01 478.06 1158.65 478.192 1160.22 478.32L1160.25 478.322C1161.84 478.451 1163.37 478.574 1165.01 478.574C1165.39 478.574 1165.82 478.608 1166.22 478.641C1166.27 478.646 1166.33 478.65 1166.38 478.654C1166.74 478.685 1167.1 478.715 1167.45 478.732C1167.86 478.752 1168.21 478.752 1168.5 478.724C1168.64 478.711 1168.74 478.692 1168.83 478.672C1168.87 478.662 1168.89 478.653 1168.91 478.646C1168.93 478.638 1168.94 478.634 1168.94 478.634C1168.94 478.634 1168.96 478.625 1169 478.589C1169.04 478.552 1169.09 478.493 1169.15 478.403C1169.29 478.215 1169.43 477.963 1169.6 477.619C1169.64 477.542 1169.68 477.457 1169.73 477.367C1169.86 477.099 1170.01 476.788 1170.17 476.508C1170.38 476.126 1170.66 475.68 1171.04 475.298C1172.56 473.782 1174.58 473.39 1176.34 473.306C1177.24 473.264 1178.14 473.299 1178.96 473.34C1179.12 473.348 1179.28 473.356 1179.44 473.365C1180.09 473.399 1180.67 473.429 1181.22 473.429H1186.36C1186.42 473.429 1186.47 473.429 1186.53 473.429C1187.33 473.426 1188.28 473.423 1189.38 474.004C1189.84 474.246 1190.13 474.604 1190.3 474.852C1190.45 475.072 1190.58 475.314 1190.66 475.465C1190.67 475.482 1190.67 475.497 1190.68 475.512C1190.69 475.528 1190.7 475.544 1190.71 475.558C1191.77 475.699 1192.69 475.392 1193.7 474.812C1194.27 474.483 1194.83 474.091 1195.45 473.653L1195.47 473.634C1196.08 473.205 1196.76 472.728 1197.47 472.332C1200.3 470.758 1203.51 470.805 1206.25 470.845C1206.66 470.851 1207.07 470.857 1207.46 470.857C1210.95 470.857 1214.37 471.06 1217.46 473.808C1218.35 474.598 1219.29 474.9 1220.43 475.002C1221.02 475.054 1221.66 475.051 1222.38 475.03C1222.57 475.025 1222.76 475.018 1222.97 475.011C1223.51 474.993 1224.1 474.973 1224.69 474.973C1226.2 474.973 1227.7 475.239 1229.08 475.484L1229.23 475.51C1230.69 475.77 1232.05 476.002 1233.44 476.002C1235.15 476.002 1236.73 476.273 1238.19 476.523L1238.28 476.538C1239.8 476.797 1241.19 477.031 1242.7 477.031C1245.71 477.031 1248.36 476.429 1251.16 475.783L1251.27 475.758C1254.01 475.127 1256.91 474.458 1260.19 474.458C1261.31 474.458 1262.24 474.729 1263 474.971C1263.1 475.004 1263.2 475.035 1263.3 475.066C1263.95 475.274 1264.44 475.432 1265 475.498C1265.34 475.538 1265.76 475.698 1266.02 475.797C1266.35 475.925 1266.73 476.087 1267.09 476.252C1267.46 476.417 1267.82 476.592 1268.13 476.748C1268.37 476.871 1268.72 477.055 1268.95 477.235C1268.94 477.233 1268.94 477.232 1268.94 477.232C1268.94 477.23 1269.05 477.287 1269.34 477.348C1269.66 477.414 1270.07 477.458 1270.54 477.485C1271 477.512 1271.47 477.519 1271.93 477.524C1271.99 477.524 1272.05 477.525 1272.11 477.525C1272.48 477.528 1272.85 477.532 1273.14 477.547C1273.93 477.592 1275.01 477.873 1275.93 478.182C1276.85 478.491 1277.87 478.911 1278.51 479.34C1279.2 479.8 1279.39 480.731 1278.93 481.421C1278.47 482.11 1277.54 482.296 1276.85 481.837C1276.55 481.634 1275.84 481.315 1274.98 481.027C1274.12 480.739 1273.35 480.564 1272.97 480.543C1272.76 480.531 1272.48 480.529 1272.1 480.525L1271.9 480.523C1271.44 480.519 1270.9 480.511 1270.37 480.48C1269.83 480.45 1269.26 480.395 1268.73 480.285C1268.24 480.183 1267.6 479.998 1267.09 479.588C1267.11 479.608 1267.11 479.607 1267.07 479.584C1267.02 479.557 1266.92 479.503 1266.76 479.418C1266.51 479.289 1266.18 479.134 1265.85 478.985C1265.52 478.834 1265.2 478.695 1264.93 478.593C1264.8 478.542 1264.7 478.505 1264.63 478.482C1264.61 478.477 1264.6 478.473 1264.59 478.47C1263.74 478.363 1262.97 478.114 1262.36 477.915C1262.27 477.885 1262.18 477.857 1262.09 477.83C1261.39 477.606 1260.82 477.458 1260.19 477.458C1257.26 477.458 1254.65 478.059 1251.84 478.706L1251.83 478.709C1249.05 479.348 1246.09 480.031 1242.7 480.031C1240.91 480.031 1239.27 479.751 1237.78 479.496L1237.77 479.495C1236.25 479.234 1234.88 479.002 1233.44 479.002C1231.75 479.002 1230.14 478.719 1228.7 478.464L1228.67 478.459C1227.2 478.198 1225.93 477.973 1224.69 477.973C1224.16 477.973 1223.65 477.99 1223.12 478.008C1222.9 478.015 1222.69 478.023 1222.47 478.029C1221.72 478.05 1220.94 478.058 1220.17 477.99C1218.57 477.849 1216.96 477.38 1215.46 476.051C1213.27 474.101 1210.88 473.857 1207.46 473.857C1207 473.857 1206.55 473.853 1206.12 473.849C1203.32 473.822 1201.01 473.799 1198.93 474.954C1198.38 475.258 1197.83 475.641 1197.21 476.083L1197.13 476.134C1196.55 476.548 1195.89 477.011 1195.2 477.411C1193.72 478.264 1191.91 478.915 1189.7 478.423C1189.08 478.285 1188.69 477.893 1188.47 477.627C1188.27 477.374 1188.12 477.091 1188.04 476.929L1188.03 476.918L1188.03 476.915C1187.94 476.75 1187.89 476.659 1187.85 476.594C1187.5 476.433 1187.21 476.429 1186.36 476.429H1181.22C1180.59 476.429 1179.9 476.393 1179.25 476.359C1179.1 476.351 1178.95 476.343 1178.81 476.336C1178 476.296 1177.22 476.268 1176.48 476.303C1174.97 476.375 1173.88 476.697 1173.16 477.419C1173.07 477.512 1172.95 477.679 1172.79 477.967C1172.67 478.176 1172.57 478.385 1172.45 478.63C1172.4 478.734 1172.34 478.844 1172.28 478.963C1172.1 479.326 1171.87 479.759 1171.59 480.153C1171.31 480.548 1170.91 480.987 1170.35 481.285C1169.83 481.56 1169.26 481.665 1168.78 481.711C1168.29 481.758 1167.77 481.751 1167.31 481.728C1166.9 481.708 1166.49 481.674 1166.13 481.644C1166.07 481.639 1166.02 481.635 1165.97 481.631C1165.56 481.596 1165.24 481.574 1165.01 481.574C1163.24 481.574 1161.6 481.441 1160.03 481.314L1160 481.312C1158.41 481.183 1156.88 481.06 1155.24 481.06C1154.45 481.06 1153.6 480.944 1152.8 480.813C1152.45 480.756 1152.12 480.699 1151.8 480.642C1151.33 480.559 1150.87 480.479 1150.38 480.406C1148.73 480.16 1147.47 480.139 1146.59 480.53C1146.45 480.592 1146.42 480.653 1146.01 481.434L1145.95 481.546C1145.77 481.899 1145.48 482.418 1144.99 482.844C1144.45 483.31 1143.78 483.585 1142.98 483.63C1142.38 483.663 1141.8 483.848 1141.01 484.107L1140.98 484.115C1140.26 484.351 1139.31 484.661 1138.26 484.661C1136.64 484.661 1135.31 485.051 1133.9 485.581C1133.6 485.693 1133.29 485.815 1132.97 485.941C1131.82 486.394 1130.51 486.905 1129.07 487.226C1126.77 487.737 1123.4 489.19 1121.24 490.388C1119.49 491.359 1117.37 491.132 1115.8 490.941C1115.6 490.918 1115.42 490.894 1115.24 490.872C1114.59 490.79 1114.01 490.717 1113.43 490.684C1112.71 490.642 1112.14 490.678 1111.69 490.805C1108.01 491.857 1104.22 491.863 1100.45 491.863C1099.74 491.863 1098.82 491.769 1097.95 491.578C1097.14 491.398 1096.12 491.083 1095.4 490.506C1095.1 490.27 1094.75 490.17 1094.07 490.069C1094.01 490.059 1093.94 490.05 1093.86 490.039C1093.25 489.956 1092.33 489.829 1091.49 489.36C1090.87 489.014 1090.29 488.681 1089.73 488.352L1089.69 488.333C1089.11 487.996 1088.53 487.66 1087.89 487.302C1087.43 487.048 1086.8 486.763 1086.15 486.545C1085.49 486.32 1084.91 486.204 1084.53 486.204C1083.06 486.204 1081.25 485.506 1079.76 484.719C1078.25 483.922 1076.72 482.842 1075.87 481.783C1075.69 481.564 1075.35 481.288 1074.79 480.973C1074.25 480.667 1073.59 480.377 1072.86 480.091C1072.34 479.884 1071.81 479.692 1071.28 479.499C1071.07 479.424 1070.87 479.348 1070.66 479.272C1069.95 479.011 1069.24 478.736 1068.65 478.443C1066.26 477.245 1063.64 476.552 1060.85 475.811L1060.69 475.768C1057.89 475.025 1054.91 474.225 1052.16 472.768C1051.45 472.394 1050.87 472.056 1050.36 471.756C1048.74 470.806 1047.8 470.256 1045.66 470.256C1044.18 470.256 1042.75 470.378 1041.27 470.507L1041.22 470.511Z" fill="black"/>
<path d="M1187.81 476.527C1187.81 476.527 1187.81 476.529 1187.81 476.533M1036.65 470.77C1038.25 470.77 1039.77 470.638 1041.22 470.511L1041.27 470.507C1042.75 470.378 1044.18 470.256 1045.66 470.256C1047.8 470.256 1048.74 470.806 1050.36 471.756C1050.87 472.056 1051.45 472.394 1052.16 472.768C1054.91 474.225 1057.89 475.025 1060.69 475.768L1060.85 475.811C1063.64 476.552 1066.26 477.245 1068.65 478.443C1069.24 478.736 1069.95 479.011 1070.66 479.272C1070.87 479.348 1071.07 479.424 1071.28 479.499C1071.81 479.692 1072.34 479.884 1072.86 480.091C1073.59 480.377 1074.25 480.667 1074.79 480.973C1075.35 481.288 1075.69 481.564 1075.87 481.783C1076.72 482.842 1078.25 483.922 1079.76 484.719C1081.25 485.506 1083.06 486.204 1084.53 486.204C1084.91 486.204 1085.49 486.32 1086.15 486.545C1086.8 486.763 1087.43 487.048 1087.89 487.302C1088.53 487.66 1089.11 487.996 1089.69 488.333L1089.73 488.352C1090.29 488.681 1090.87 489.014 1091.49 489.36C1092.33 489.829 1093.25 489.956 1093.86 490.039C1093.94 490.05 1094.01 490.059 1094.07 490.069C1094.75 490.17 1095.1 490.27 1095.4 490.506C1096.12 491.083 1097.14 491.398 1097.95 491.578C1098.82 491.769 1099.74 491.863 1100.45 491.863C1104.22 491.863 1108.01 491.857 1111.69 490.805C1112.14 490.678 1112.71 490.642 1113.43 490.684C1114.01 490.717 1114.59 490.79 1115.24 490.872C1115.42 490.894 1115.6 490.918 1115.8 490.941C1117.37 491.132 1119.49 491.359 1121.24 490.388C1123.4 489.19 1126.77 487.737 1129.07 487.226C1130.51 486.905 1131.82 486.394 1132.97 485.941C1133.29 485.815 1133.6 485.693 1133.9 485.581C1135.31 485.051 1136.64 484.661 1138.26 484.661C1139.31 484.661 1140.26 484.351 1140.98 484.115L1141.01 484.107C1141.8 483.848 1142.38 483.663 1142.98 483.63C1143.78 483.585 1144.45 483.31 1144.99 482.844C1145.48 482.418 1145.77 481.899 1145.95 481.546L1146.01 481.434C1146.42 480.653 1146.45 480.592 1146.59 480.53C1147.47 480.139 1148.73 480.16 1150.38 480.406C1150.87 480.479 1151.33 480.559 1151.8 480.642C1152.12 480.699 1152.45 480.756 1152.8 480.813C1153.6 480.944 1154.45 481.06 1155.24 481.06C1156.88 481.06 1158.41 481.183 1160 481.312L1160.03 481.314C1161.6 481.441 1163.24 481.574 1165.01 481.574C1165.24 481.574 1165.56 481.596 1165.97 481.631C1166.02 481.635 1166.07 481.639 1166.13 481.644C1166.49 481.674 1166.9 481.708 1167.31 481.728C1167.77 481.751 1168.29 481.758 1168.78 481.711C1169.26 481.665 1169.83 481.56 1170.35 481.285C1170.91 480.987 1171.31 480.548 1171.59 480.153C1171.87 479.759 1172.1 479.326 1172.28 478.963C1172.34 478.844 1172.4 478.734 1172.45 478.63C1172.57 478.385 1172.67 478.176 1172.79 477.967C1172.95 477.679 1173.07 477.512 1173.16 477.419C1173.88 476.697 1174.97 476.375 1176.48 476.303C1177.22 476.268 1178 476.296 1178.81 476.336C1178.95 476.343 1179.1 476.351 1179.25 476.359C1179.9 476.393 1180.59 476.429 1181.22 476.429H1186.36C1187.21 476.429 1187.5 476.433 1187.85 476.594C1187.89 476.659 1187.94 476.75 1188.03 476.915L1188.03 476.918L1188.04 476.929C1188.12 477.091 1188.27 477.374 1188.47 477.627C1188.69 477.893 1189.08 478.285 1189.7 478.423C1191.91 478.915 1193.72 478.264 1195.2 477.411C1195.89 477.011 1196.55 476.548 1197.13 476.134L1197.21 476.083C1197.83 475.641 1198.38 475.258 1198.93 474.954C1201.01 473.799 1203.32 473.822 1206.12 473.849C1206.55 473.853 1207 473.857 1207.46 473.857C1210.88 473.857 1213.27 474.101 1215.46 476.051C1216.96 477.38 1218.57 477.849 1220.17 477.99C1220.94 478.058 1221.72 478.05 1222.47 478.029C1222.69 478.023 1222.9 478.015 1223.12 478.008C1223.65 477.99 1224.16 477.973 1224.69 477.973C1225.93 477.973 1227.2 478.198 1228.67 478.459L1228.7 478.464C1230.14 478.719 1231.75 479.002 1233.44 479.002C1234.88 479.002 1236.25 479.234 1237.77 479.495L1237.78 479.496C1239.27 479.751 1240.91 480.031 1242.7 480.031C1246.09 480.031 1249.05 479.348 1251.83 478.709L1251.84 478.706C1254.65 478.059 1257.26 477.458 1260.19 477.458C1260.82 477.458 1261.39 477.606 1262.09 477.83C1262.18 477.857 1262.27 477.885 1262.36 477.915C1262.97 478.114 1263.74 478.363 1264.59 478.47C1264.6 478.473 1264.61 478.477 1264.63 478.482C1264.7 478.505 1264.8 478.542 1264.93 478.593C1265.2 478.695 1265.52 478.834 1265.85 478.985C1266.18 479.134 1266.51 479.289 1266.76 479.418C1266.92 479.503 1267.02 479.557 1267.07 479.584C1267.11 479.607 1267.11 479.608 1267.09 479.588C1267.6 479.998 1268.24 480.183 1268.73 480.285C1269.26 480.395 1269.83 480.45 1270.37 480.48C1270.9 480.511 1271.44 480.519 1271.9 480.523L1272.1 480.525C1272.48 480.529 1272.76 480.531 1272.97 480.543C1273.35 480.564 1274.12 480.739 1274.98 481.027C1275.84 481.315 1276.55 481.634 1276.85 481.837C1277.54 482.296 1278.47 482.11 1278.93 481.421C1279.39 480.731 1279.2 479.8 1278.51 479.34C1277.87 478.911 1276.85 478.491 1275.93 478.182C1275.01 477.873 1273.93 477.592 1273.14 477.547C1272.85 477.532 1272.48 477.528 1272.11 477.525C1272.05 477.525 1271.99 477.524 1271.93 477.524C1271.47 477.519 1271 477.512 1270.54 477.485C1270.07 477.458 1269.66 477.414 1269.34 477.348C1269.05 477.287 1268.94 477.23 1268.94 477.232C1268.94 477.232 1268.94 477.233 1268.95 477.235C1268.72 477.055 1268.37 476.871 1268.13 476.748C1267.82 476.592 1267.46 476.417 1267.09 476.252C1266.73 476.087 1266.35 475.925 1266.02 475.797C1265.76 475.698 1265.34 475.538 1265 475.498C1264.44 475.432 1263.95 475.274 1263.3 475.066C1263.2 475.035 1263.1 475.004 1263 474.971C1262.24 474.729 1261.31 474.458 1260.19 474.458C1256.91 474.458 1254.01 475.127 1251.27 475.758L1251.16 475.783C1248.36 476.429 1245.71 477.031 1242.7 477.031C1241.19 477.031 1239.8 476.797 1238.28 476.538L1238.19 476.523C1236.73 476.273 1235.15 476.002 1233.44 476.002C1232.05 476.002 1230.69 475.77 1229.23 475.51L1229.08 475.484C1227.7 475.239 1226.2 474.973 1224.69 474.973C1224.1 474.973 1223.51 474.993 1222.97 475.011C1222.76 475.018 1222.57 475.025 1222.38 475.03C1221.66 475.051 1221.02 475.054 1220.43 475.002C1219.29 474.9 1218.35 474.598 1217.46 473.808C1214.37 471.06 1210.95 470.857 1207.46 470.857C1207.07 470.857 1206.66 470.851 1206.25 470.845C1203.51 470.805 1200.3 470.758 1197.47 472.332C1196.76 472.728 1196.08 473.205 1195.47 473.634L1195.45 473.653C1194.83 474.091 1194.27 474.483 1193.7 474.812C1192.69 475.392 1191.77 475.699 1190.71 475.558C1190.7 475.544 1190.69 475.528 1190.68 475.512C1190.67 475.497 1190.67 475.482 1190.66 475.465C1190.58 475.314 1190.45 475.072 1190.3 474.852C1190.13 474.604 1189.84 474.246 1189.38 474.004C1188.28 473.423 1187.33 473.426 1186.53 473.429C1186.47 473.429 1186.42 473.429 1186.36 473.429H1181.22C1180.67 473.429 1180.09 473.399 1179.44 473.365C1179.28 473.356 1179.12 473.348 1178.96 473.34C1178.14 473.299 1177.24 473.264 1176.34 473.306C1174.58 473.39 1172.56 473.782 1171.04 475.298C1170.66 475.68 1170.38 476.126 1170.17 476.508C1170.01 476.788 1169.86 477.099 1169.73 477.367C1169.68 477.457 1169.64 477.542 1169.6 477.619C1169.43 477.963 1169.29 478.215 1169.15 478.403C1169.09 478.493 1169.04 478.552 1169 478.589C1168.96 478.625 1168.94 478.634 1168.94 478.634C1168.94 478.634 1168.93 478.638 1168.91 478.646C1168.89 478.653 1168.87 478.662 1168.83 478.672C1168.74 478.692 1168.64 478.711 1168.5 478.724C1168.21 478.752 1167.86 478.752 1167.45 478.732C1167.1 478.715 1166.74 478.685 1166.38 478.654C1166.33 478.65 1166.27 478.646 1166.22 478.641C1165.82 478.608 1165.39 478.574 1165.01 478.574C1163.37 478.574 1161.84 478.451 1160.25 478.322L1160.22 478.32C1158.65 478.192 1157.01 478.06 1155.24 478.06C1154.71 478.06 1154.06 477.979 1153.28 477.853C1153.01 477.808 1152.71 477.755 1152.4 477.7C1151.88 477.61 1151.33 477.514 1150.82 477.438C1149.16 477.192 1147.12 477.012 1145.37 477.789C1144.18 478.319 1143.63 479.457 1143.37 479.989C1143.34 480.056 1143.32 480.114 1143.29 480.159C1143.14 480.453 1143.06 480.546 1143.02 480.584C1143 480.594 1143 480.599 1142.98 480.605C1142.97 480.611 1142.92 480.628 1142.81 480.634C1141.81 480.69 1140.89 480.988 1140.19 481.217C1140.15 481.23 1140.12 481.242 1140.08 481.255C1139.3 481.509 1138.77 481.661 1138.26 481.661C1136.12 481.661 1134.4 482.191 1132.85 482.772C1132.46 482.916 1132.1 483.059 1131.74 483.197C1130.63 483.635 1129.61 484.032 1128.42 484.298C1125.74 484.893 1122.09 486.487 1119.78 487.766C1119.02 488.192 1117.89 488.173 1116.16 487.963C1116 487.944 1115.84 487.923 1115.67 487.902C1115.01 487.819 1114.29 487.728 1113.61 487.689C1112.74 487.639 1111.78 487.659 1110.87 487.921C1107.66 488.839 1104.29 488.863 1100.45 488.863C1099.97 488.863 1099.27 488.795 1098.6 488.648C1097.87 488.489 1097.43 488.29 1097.27 488.163C1096.3 487.39 1095.25 487.21 1094.51 487.101C1094.45 487.092 1094.38 487.083 1094.32 487.074C1093.63 486.971 1093.27 486.92 1092.95 486.737C1092.35 486.405 1091.8 486.085 1091.22 485.751L1091.2 485.739C1090.62 485.402 1090.02 485.053 1089.34 484.679C1088.73 484.335 1087.93 483.977 1087.11 483.702C1086.31 483.433 1085.38 483.204 1084.53 483.204C1083.82 483.204 1082.54 482.797 1081.16 482.067C1079.8 481.346 1078.68 480.497 1078.21 479.909C1077.69 479.254 1076.96 478.751 1076.26 478.357C1075.54 477.953 1074.74 477.605 1073.96 477.299C1073.4 477.077 1072.81 476.865 1072.28 476.668C1072.08 476.596 1071.88 476.525 1071.7 476.457C1070.99 476.195 1070.41 475.97 1069.99 475.76C1067.32 474.422 1064.44 473.659 1061.74 472.943C1061.64 472.918 1061.55 472.893 1061.46 472.868C1058.61 472.115 1055.96 471.389 1053.56 470.117C1053.07 469.858 1052.61 469.586 1052.16 469.316C1050.38 468.265 1048.67 467.256 1045.66 467.256C1044.03 467.256 1042.48 467.39 1041.02 467.518L1041.01 467.519C1039.52 467.648 1038.11 467.77 1036.65 467.77H1027.39C1025.65 467.77 1024.4 468.027 1022.95 468.349C1022.4 468.472 1021.57 468.665 1020.75 468.897C1019.98 469.117 1019.06 469.41 1018.43 469.76C1018.26 469.858 1017.98 469.961 1017.57 470.08C1017.37 470.138 1017.16 470.194 1016.93 470.255L1016.88 470.266C1016.67 470.323 1016.43 470.384 1016.2 470.45C1015.3 470.705 1013.95 471.132 1013.1 472.192C1013.1 472.191 1013.1 472.192 1013.1 472.193C1013.09 472.207 1013.01 472.287 1012.81 472.421C1012.6 472.56 1012.34 472.71 1012.05 472.857C1011.45 473.163 1010.88 473.376 1010.61 473.437C1009.17 473.756 1007.41 473.774 1005.49 473.69C1004.84 473.662 1004.17 473.622 1003.48 473.581C1002.24 473.505 1000.97 473.429 999.87 473.429C999.042 473.429 998.37 474.101 998.37 474.929C998.37 475.758 999.042 476.429 999.87 476.429C1000.9 476.429 1001.98 476.496 1003.16 476.567C1003.86 476.61 1004.59 476.654 1005.36 476.688C1007.31 476.773 1009.41 476.776 1011.26 476.365C1011.87 476.228 1012.7 475.893 1013.41 475.532C1013.78 475.345 1014.16 475.132 1014.49 474.905C1014.8 474.694 1015.17 474.411 1015.45 474.066C1015.63 473.841 1016.06 473.606 1017.02 473.337C1017.22 473.279 1017.43 473.224 1017.65 473.166L1017.69 473.157C1017.92 473.097 1018.16 473.032 1018.4 472.963C1018.87 472.828 1019.41 472.651 1019.89 472.382C1020.18 472.22 1020.79 472.005 1021.57 471.784C1022.31 471.574 1023.08 471.395 1023.6 471.278C1025.01 470.965 1025.99 470.77 1027.39 470.77H1036.65Z" stroke="black" stroke-width="2" stroke-linecap="round"/>
</g>
<path id="Vector 12 (Stroke)" fill-rule="evenodd" clip-rule="evenodd" d="M1273.64 477.729C1273.8 476.916 1274.58 476.385 1275.4 476.544C1275.73 476.609 1276.12 476.662 1276.58 476.726C1276.77 476.751 1276.97 476.779 1277.18 476.81C1277.88 476.91 1278.69 477.041 1279.48 477.252C1280.97 477.652 1282.89 478.472 1283.61 480.481C1283.78 480.951 1284.11 481.447 1284.62 482.014C1284.98 482.419 1285.36 482.79 1285.77 483.193C1285.96 483.373 1286.15 483.559 1286.35 483.758C1287.15 484.565 1288.37 484.931 1290.05 485.143C1290.58 485.211 1291.08 485.256 1291.61 485.304C1291.94 485.333 1292.27 485.363 1292.62 485.4C1293.5 485.49 1294.43 485.613 1295.3 485.863C1295.97 486.055 1296.74 486.179 1297.65 486.325C1298.52 486.465 1299.51 486.625 1300.45 486.892C1300.94 487.033 1301.41 487.308 1301.7 487.475C1301.73 487.494 1301.76 487.512 1301.79 487.527C1302.14 487.733 1302.32 487.813 1302.45 487.842C1302.65 487.886 1302.85 487.872 1303.26 487.843C1303.4 487.834 1303.55 487.823 1303.74 487.812C1304.34 487.777 1305.34 487.744 1306.26 488.32C1307.52 489.109 1309.29 489.972 1311.14 490.665C1313 491.363 1314.84 491.849 1316.26 491.954C1318.27 492.103 1320.02 492.927 1321.54 493.808C1322.19 494.185 1322.83 494.592 1323.43 494.975C1323.53 495.04 1323.63 495.104 1323.73 495.167C1324.43 495.613 1325.08 496.017 1325.72 496.355C1326.32 496.672 1326.93 496.85 1327.7 497.046C1327.77 497.064 1327.84 497.082 1327.91 497.1C1328.6 497.275 1329.42 497.485 1330.25 497.853C1330.54 497.982 1330.82 498.07 1331.17 498.183C1331.38 498.247 1331.6 498.319 1331.87 498.411C1332.49 498.624 1333.3 498.942 1333.96 499.535C1334.29 499.832 1334.55 500.144 1334.75 500.397C1334.83 500.491 1334.89 500.571 1334.95 500.642C1335.06 500.786 1335.14 500.892 1335.24 501.001C1335.44 501.22 1335.48 501.215 1335.52 501.212C1335.52 501.211 1335.53 501.211 1335.53 501.211C1337.99 501.211 1340.15 502.518 1341.89 503.587C1341.95 503.62 1342 503.653 1342.05 503.685C1343.88 504.809 1345.31 505.686 1346.79 505.85C1348.62 506.054 1350.4 506.739 1351.98 507.383C1352.18 507.465 1352.38 507.546 1352.57 507.625C1353.98 508.204 1355.23 508.718 1356.46 508.992C1357.38 509.195 1358.3 509.483 1359.17 509.765C1359.38 509.832 1359.59 509.9 1359.79 509.965C1360.44 510.181 1361.06 510.384 1361.67 510.557C1361.95 510.638 1362.27 510.722 1362.64 510.816L1362.73 510.841C1363.13 510.944 1363.57 511.058 1364 511.185C1364.86 511.432 1365.83 511.756 1366.63 512.212C1367.09 512.477 1367.68 512.598 1368.54 512.692C1368.68 512.707 1368.84 512.722 1369 512.737C1369.72 512.806 1370.61 512.893 1371.44 513.13C1372.21 513.35 1373.07 513.861 1373.74 514.269C1373.93 514.388 1374.12 514.502 1374.29 514.611C1374.8 514.927 1375.22 515.192 1375.59 515.374C1376.81 515.984 1378.35 516.13 1380.06 516.13C1380.97 516.13 1381.84 516.381 1382.53 516.584C1382.6 516.606 1382.67 516.627 1382.75 516.649C1383.39 516.842 1383.91 516.994 1384.42 517.056C1384.66 517.086 1384.94 517.077 1385.35 517.065C1385.54 517.059 1385.75 517.052 1386 517.048C1386.63 517.039 1387.58 517.044 1388.39 517.403C1388.89 517.626 1389.52 517.718 1390.32 517.731C1390.72 517.738 1391.13 517.725 1391.57 517.709C1391.61 517.707 1391.66 517.705 1391.7 517.704C1392.09 517.689 1392.51 517.674 1392.92 517.674C1393.89 517.674 1394.87 517.822 1395.69 517.948L1395.72 517.953C1396.58 518.085 1397.25 518.188 1397.81 518.188C1399.43 518.188 1401.21 518.351 1403.01 518.538C1403.39 518.579 1403.78 518.62 1404.17 518.662C1405.6 518.816 1407.04 518.97 1408.48 519.071C1412.17 519.328 1415.49 519.19 1417.98 517.946C1419.94 516.965 1422.01 516.66 1423.99 516.582C1425.15 516.536 1426.43 516.571 1427.63 516.605C1428.36 516.625 1429.07 516.645 1429.71 516.645C1430.56 516.645 1431.52 516.775 1432.43 516.915C1432.68 516.953 1432.93 516.992 1433.17 517.031C1433.86 517.142 1434.55 517.25 1435.23 517.33C1437.17 517.556 1438.57 517.466 1439.42 516.897C1440.11 516.437 1441.04 516.623 1441.5 517.313C1441.96 518.002 1441.78 518.933 1441.09 519.393C1439.24 520.625 1436.82 520.535 1434.89 520.31C1434.13 520.222 1433.36 520.099 1432.65 519.986C1432.42 519.949 1432.19 519.914 1431.98 519.881C1431.06 519.739 1430.31 519.645 1429.71 519.645C1428.87 519.645 1428.1 519.622 1427.35 519.599C1426.26 519.567 1425.22 519.536 1424.11 519.579C1422.34 519.649 1420.74 519.916 1419.32 520.63C1416.05 522.263 1412.02 522.325 1408.27 522.063C1406.77 521.959 1405.26 521.797 1403.82 521.642C1403.44 521.601 1403.06 521.561 1402.69 521.522C1400.9 521.335 1399.26 521.188 1397.81 521.188C1397.01 521.188 1396.14 521.053 1395.38 520.935C1395.33 520.928 1395.28 520.921 1395.23 520.913C1394.39 520.783 1393.63 520.674 1392.92 520.674C1392.57 520.674 1392.21 520.687 1391.81 520.702L1391.68 520.707C1391.24 520.723 1390.76 520.739 1390.27 520.731C1389.31 520.716 1388.21 520.608 1387.17 520.144C1387.04 520.087 1386.72 520.038 1386.05 520.048C1385.94 520.05 1385.81 520.054 1385.67 520.058C1385.18 520.074 1384.55 520.093 1384.05 520.034C1383.27 519.939 1382.51 519.709 1381.9 519.526C1381.82 519.503 1381.75 519.481 1381.68 519.46C1380.96 519.249 1380.47 519.13 1380.06 519.13C1378.29 519.13 1376.13 519 1374.25 518.057C1373.74 517.806 1373.14 517.432 1372.61 517.096C1372.45 517.002 1372.31 516.911 1372.17 516.826C1371.44 516.38 1370.93 516.103 1370.62 516.014C1370.08 515.86 1369.53 515.805 1368.83 515.737C1368.64 515.718 1368.44 515.698 1368.22 515.675C1367.32 515.576 1366.18 515.413 1365.14 514.817C1364.67 514.546 1363.98 514.302 1363.17 514.067C1362.78 513.953 1362.38 513.848 1361.98 513.745L1361.88 513.718C1361.52 513.626 1361.16 513.534 1360.84 513.442C1360.18 513.251 1359.48 513.023 1358.81 512.804C1358.62 512.741 1358.43 512.678 1358.25 512.618C1357.39 512.339 1356.58 512.091 1355.81 511.921C1354.31 511.587 1352.8 510.963 1351.42 510.396C1351.23 510.316 1351.04 510.238 1350.85 510.162C1349.25 509.511 1347.83 508.984 1346.46 508.832C1344.29 508.591 1342.31 507.372 1340.69 506.367C1340.56 506.291 1340.44 506.217 1340.32 506.144C1338.47 505.005 1337.01 504.211 1335.53 504.211C1334.29 504.211 1333.51 503.569 1333 502.999C1332.84 502.812 1332.66 502.59 1332.52 502.415C1332.48 502.36 1332.44 502.31 1332.41 502.268C1332.24 502.055 1332.1 501.898 1331.96 501.771C1331.77 501.602 1331.45 501.44 1330.89 501.247C1330.77 501.205 1330.62 501.157 1330.46 501.105C1330.02 500.964 1329.47 500.79 1329.03 500.594C1328.45 500.335 1327.87 500.186 1327.15 500.002C1327.08 499.985 1327.02 499.969 1326.95 499.952C1326.17 499.752 1325.25 499.503 1324.31 499.006C1323.56 498.607 1322.82 498.145 1322.12 497.698C1322.01 497.631 1321.91 497.564 1321.8 497.498C1321.2 497.114 1320.62 496.745 1320.03 496.403C1318.65 495.599 1317.37 495.044 1316.04 494.946C1314.22 494.811 1312.07 494.219 1310.08 493.474C1308.08 492.724 1306.13 491.777 1304.67 490.864C1304.62 490.83 1304.48 490.774 1303.92 490.807C1303.85 490.811 1303.78 490.817 1303.69 490.823C1303.23 490.86 1302.47 490.921 1301.79 490.77C1301.16 490.63 1300.62 490.319 1300.29 490.128L1300.29 490.127C1299.87 489.886 1299.73 489.807 1299.62 489.776C1298.89 489.566 1298.07 489.432 1297.18 489.287C1297.15 489.283 1297.12 489.278 1297.09 489.273C1296.25 489.138 1295.32 488.989 1294.48 488.747C1293.87 488.573 1293.15 488.47 1292.32 488.384C1292.04 488.356 1291.74 488.328 1291.43 488.3C1290.86 488.248 1290.24 488.192 1289.67 488.12C1287.89 487.893 1285.78 487.439 1284.22 485.879C1284.08 485.735 1283.92 485.58 1283.76 485.418C1283.31 484.984 1282.81 484.496 1282.38 484.009C1281.77 483.32 1281.14 482.489 1280.79 481.497C1280.59 480.961 1280 480.498 1278.7 480.15C1278.09 479.987 1277.43 479.876 1276.75 479.779C1276.59 479.756 1276.43 479.733 1276.26 479.71C1275.76 479.642 1275.25 479.571 1274.82 479.488C1274.01 479.33 1273.48 478.542 1273.64 477.729Z" fill="black" stroke="black" stroke-width="2" stroke-linecap="round"/>
</g>
</g>
<defs>
<clipPath id="clip0_1_2">
<rect width="1440" height="1024" fill="white"/>
</clipPath>
</defs>
</svg>
