<?xml version="1.0" encoding="utf-8"?>
<!-- Generator: Adobe Illustrator 25.3.1, SVG Export Plug-In . SVG Version: 6.00 Build 0)  -->
<svg version="1.1" id="drawing_x5F_layer_x5F_3_copy"
	 xmlns="http://www.w3.org/2000/svg" xmlns:xlink="http://www.w3.org/1999/xlink" x="0px" y="0px" viewBox="0 0 1366 232.24"
	 style="enable-background:new 0 0 1366 232.24;" xml:space="preserve">
<style type="text/css">
	.st0{fill:#FFFFFF;stroke:#000000;stroke-width:3;stroke-miterlimit:10;}
</style>
<g>
	<path class="st0" d="M-0.17,174.16C14,173.41,27,170.41,41,172.41c2,0,5-1,7-2c2.96-2.96,5.93-4.28,9.3-5.58"/>
	<path class="st0" d="M88.15,159.8c-1.69-0.49-3.4-1.27-5.15-2.39c-7,0-12,3-19,4c-1,0-2,2-3,2c-1.3,0.52-2.52,0.97-3.7,1.42"/>
	<path class="st0" d="M242.8,134.72c0.08,0.04,0.15,0.08,0.23,0.12c0.55,0.3,1.2,0.62,1.78,0.39c0.42-0.16,0.68-0.56,0.99-0.88
		c0.05-0.05,0.11-0.09,0.16-0.14"/>
	<path class="st0" d="M88.2,159.82c5.39,1.55,10.5,0.14,15.46-2.51c0,0-0.05,0.01-0.13,0.02"/>
	<path class="st0" d="M245.97,134.21c1.22-1.14,3.25-1.34,4.62-0.31c2.63-0.77,5.05-0.83,7.4-0.55c4.57,0.55,8.88,2.42,14.01,3.06
		c5,1,7-4,12-5c4-1,8,3,11,0c0.51-0.51,1.08-1.08,1.7-1.66c1.82-1.73,4.06-3.59,6.3-4.34c3-1,7,1,10,0c4,0,9-2,13-3
		c8.98-2.99,17.95-1.01,25.91,2.03c1.43,3.97,5.4,5.85,8,8.9c2.85,3.36,3.35,7.84,3.57,12.1c1.2,10.38-2.01,21.12,2.49,31.13
		c0.04,0.65,0.09,1.3,0.13,1.95c0.03,0.53,0.07,1.08,0.3,1.56c0.27,0.58,0.79,1.04,1.01,1.64c0.3,0.83-0.02,1.81,0.58,2.64
		c5.43-0.06,10.72,0.99,16.01,2.05c7,1,14,1,19-4c9-12,17-23,24-36c3-5,5-9,7-14c2-3,5-5,7-8c9.66-7.73,18.39-14.53,24.82-25.35
		c1.45-1.64,3.18-3.01,4.96-4.29c4.48-3.24,9.31-5.99,14.37-8.2c3.35-1.46,6.58-3.2,9.66-5.18c6.1-3.92,13.15-8.97,20.19-11.98
		c7-2,15-3,22-5c1,0,2-2,3-2c3-1,6-2,9-3c8-2,16-1,24-4l1-2c4-2,9-1,14-3c22-9,54-24,72,0c4,1,8,3,12,4c2,1,4,4,6,5c14,2,25,7,37,15
		c3,2,6,4,9,4c16-1,31,1,46-5c10,2,18,7,24,16c1,1,4,2,6,1c3-3,6-6,10-3c8,7,14,15,24,19c2,0,5,0,8,1
		c9.98,4.99,20.95,9.98,31.81,13.38c0.26,2.72,0.52,5.45,0.78,8.17c0.14,1.46,0.53,2.65-0.36,3.81c0.07,2.73,4.09,3.1,6,5.06
		c0.14,0.15,0.26,0.3,0.38,0.46c0,0,0.97,2.25,1.07,2.48c0.26,0.99,0.45,2.03,0.78,2.99c0.59,1.71,1.69,3.2,2.58,4.78
		c0.07,0.17,1.1,2.53,1.24,2.86c1.2,3.71,1.12,7.81,1.61,11.73c0.58,4.65,2.52,9.75,6.88,11.46c0,0,3.65,1.43,6.87,2.69
		c5.42,0.18,10.84,0.36,16.26,0.53c2.97,0.1,5.94,0.19,8.91,0.11c4.71-0.13,9.39-0.73,14.07-1.32c0.6-0.08,1.29-0.22,1.7-0.61
		c0.22-0.71,0.67-1.35,1.31-1.74c0.39-0.24,0.84-0.38,1.2-0.67c0.36-0.29,0.6-0.71,0.85-1.1c1.77-2.77,4.47-4.79,7.14-6.72
		c1.16-0.84,2.42-1.58,3.81-1.94c1.76-0.45,2.29-2.23,3.34-3.82c0.43-0.64,0.86-1.27,1.29-1.91c1.71-2.68,4.49-5.48,5.73-8.47
		c0.48-1.15,2.29-2.62,3.38-3.23c0.41-1.87,1.4-3.61,2.8-4.91c1.46,0.01,1.66-1.69,1.94-3.13s0.13-2.96,0.67-4.31
		c-0.5-2.78,1.69-5.23,3.39-7.49c0.84-1.12,1.67-2.23,2.51-3.35c1.03-1.37,2.95-2.95,4.56-2.36l1.53-2.55
		c0.74,0.41,1.62,0.56,2.45,0.44c0.67,1.89,2.07,3.5,3.85,4.44c0.33,0.17,0.68,0.34,0.91,0.64c0.22,0.3,0.27,0.7,0.31,1.07
		c0.1,0.88,0.19,1.76,0.29,2.64c1.95,0.59,3.88,0.08,5.83,0.67c1.14,0.34,2.54,1.07,2.34,2.25c0.92-0.51,2.24,0.08,2.49,1.1
		c0.14,0.11,0.19,0.15,0.36,0.22c0.29,0.12,0.61,0.16,0.93,0.17c0.76,0.03,1.54-0.06,2.27-0.27c0.1-0.03,0.17,0.06,0.2-0.04
		c0.48-0.46,0.78-1.09,0.85-1.75c0.64-0.25,1.36-0.5,2.01-0.27s1.03,1.2,0.49,1.63c-0.06,0.18-0.12,0.36-0.12,0.54
		c0.01,0.19,0.07,0.38,0.21,0.51c0.15,0.14,0.37,0.18,0.58,0.21c0.3,0.03,0.61,0.03,0.91,0.03c0.12,0,0.25,0,0.36-0.04
		c0.15-0.05,0.27-0.16,0.4-0.25s0.31-0.15,0.46-0.1c1.31-0.22,2.55-1.09,3.59-2.06c0.13-0.12,0.26-0.24,0.38-0.36
		c1.48-1.48,3-3.22,5.08-3.5c0.7-0.1,1.43-0.02,2.07-0.3c0.82-0.35,1.49-1.46,1.34-2.34c0.65-0.89,1.09-1.93,1.27-3.01
		c1.4,0.11,2.8,0.21,4.2,0.32c0.3,0.02,0.6,0.05,0.86,0.2c0.89,0.53,0.39,1.79,0.43,2.88c0.01,0.25,0.04,0.5,0.14,0.72
		c1.24,0.02,2.47,0.05,3.71,0.07c0.25,0,0.54,0,0.72-0.18c0.33-0.32,0.07-0.85-0.02-1.3c-0.12-0.63,0.25-1.25,0.71-1.58
		c1.15-0.13,2,0.82,2.38,1.83c0.33,0.86,0.41,1.8,0.72,2.68c0.89-0.16,1.69-0.63,2.58-0.8c0.88-0.18,1.97,0.06,2.33,0.89
		c0.79,2.44,1.03,3.25,3.07,4.81c-0.39,2.76,0.15,5.64,1.5,8.07c0.6,1.07,1.36,2.1,1.56,3.32c0.14,0.84,0,1.78,0.49,2.48
		c0.71,1.01,2.5,1.15,2.72,2.37c0.33,1.85,2.08,3.8,3.9,4.28c0,0-0.1,1.34-0.21,2.85c0.68,6.06,1.36,12.12,2.04,18.18
		c0.03,0.22,0.06,0.47,0.23,0.62c0.19,0.17,0.47,0.15,0.72,0.13c2-0.18,4.01-0.37,6.01-0.55c1.14-0.1,2.28-0.21,3.37-0.57
		c1.91-0.63,3.54-2.04,4.43-3.84c1.72,0.24,3.97-0.65,5.58-1.31c1.61-0.65,2.87-2.52,2.23-4.13c1.34-0.51,2.93-0.29,4.08,0.56
		c0.25,0.18,0.49,0.39,0.78,0.45c0.57,0.11,1.09-0.43,1.22-0.99c0.13-0.56-0.01-1.15-0.08-1.73c-0.26-2.13,0.52-4.35,2.05-5.85
		c0.98,0.1,3.27,1.16,3.24,2.14c-0.01,0.33-0.1,0.67-0.01,0.98c0.09,0.32,0.47,0.59,0.74,0.4c0.94,0,2.21-0.33,3.15-0.33
		c-0.4-1,0.2-3.05,0.95-3.83c0.75-0.78,1.76-1.24,2.74-1.68c0.25-1.02,2.48-1.32,2.94-2.26c0.14-0.29,0.12-0.64,0.27-0.92
		c0.41-0.75,1.51-0.46,2.36-0.41c1.79,0.11,3.43-1.61,3.31-3.39c0.47-0.36,0.83-0.91,1.11-1.44c0.11-0.22,0.2-0.45,0.28-0.57
		c0.54-1.13,0.97-2.32,1.24-3.55c0.06-0.29,0.13-0.58,0.29-0.82c0.17-0.24,0.42-0.4,0.67-0.55c1.97-1.23,3.94-2.45,5.92-3.68
		c3.3-0.62,6.8-0.01,9.71,1.64c-0.62,2.36,0.6,4.78,1.78,6.92c0.39,0.71,0.78,1.42,1.17,2.12c-0.04,1.41-0.52,2.18-0.45,3.59
		c0.01,0.31,0.04,0.65,0.26,0.87c0.26,0.26,0.67,0.26,1.04,0.25c1.04-0.05,2.09-0.1,3.13-0.15c0.98-0.05,2.05-0.13,2.78-0.79
		c0.51-0.46,0.77-1.14,1.22-1.66c0.45-0.52,1.27-0.86,1.81-0.43c-0.94,1.71,1.88,3.57,1.37,5.45c-0.59,2.16,0.54,3.71,0.77,5.94
		c0.06,0.55,0.11,1.09,0.17,1.64c0.43,4.16,0.85,8.33,1.28,12.49c0.43,0.03,0.86,0.06,1.29,0.09c-0.06,1.71,0.12,3.42,0.55,5.07
		c1.55,0.89,3.17,1.8,4.95,1.92s3.77-0.79,4.29-2.5c1.21-0.75,2-2.73,2.19-4.14s0.02-2.83,0.03-4.25c0.02-1.79,0.32-3.57,0.66-5.33
		c0.68-3.47,1.52-6.9,2.51-10.29c0.82,0.15,1.68,0.3,2.47,0.02c0.78-0.28,1.42-1.16,1.13-1.94c1.4-1.03,3.65-0.57,4.54,0.92
		l2.11-1.78c0.65,0.37,0.37,0.5,1.09,0.3c0-1.56,0.52-3.12,1.45-4.38c0.2-0.27,0.42-0.53,0.53-0.85c0.12-0.35,0.08-0.72,0.08-1.09
		c0.01-1.64,0.82-3.26,2.12-4.25c0.66,0.51,1.6-1.77,2-2.5c1.48-2.67,2.96-5.35,4.44-8.02c0.28-0.5,0.75-1.08,1.29-0.88
		c0.22,0.08,0.36,0.27,0.53,0.43c0.99,0.92,2.92,0.32,3.21-1c1.59,0.89,4.41,1.28,5.82,0.13c1.15-0.94,1.37-2.68,2.5-3.63
		c0.42-0.35,0.95-0.58,1.33-0.98c0.19-0.21,0.33-0.45,0.45-0.71c0.11-0.24,0.19-0.49,0.28-0.74l1.28-3.83
		c0.15-0.11,0.26-0.19,0.4-0.3c1.88-0.12,1.43-1.05,2.27-1.88c1.34-1.33,3.98-0.79,4.7,0.95c1.01,0.04,2.02,0.08,3.03,0.12
		c0.03,0.32,0.06,0.64,0.09,0.96c1.14,0.03,2.28,0.06,3.42,0.09c0.04,0.41,0.07,0.83,0.11,1.24c1.32,0.16,2.63,0.42,3.91,0.77"/>
	<path class="st0" d="M242.8,134.72c-3.77-2.03-5.52-1.87-9.67-2.15c-3.89-0.26-7.63-1.42-10.82-3.68
		c-4.69-3.32-11.11-3.88-16.71-3.76c-5.92,0.13-11.33,0.94-17.18-0.39c-5.35-1.21-10.81-1.34-16.28-1.21
		c-2.39-0.21-4.31-0.2-6.68,0.21c-0.9,0.15-1.96,1.16-1.91,2.07c-0.15,0.16-0.34,0.36-0.55,0.58c-0.27,0.23-0.54,0.46-0.81,0.69
		c-0.09,0.07-0.18,0.15-0.21,0.26c-0.01,0.04-0.02,0.08-0.05,0.12c-0.03,0.04-0.07,0.06-0.11,0.07c-0.37,0.15-0.77,0.21-1.16,0.18
		c-0.06-0.01-0.13-0.01-0.18-0.05c-0.05-0.03-0.08-0.08-0.11-0.13c-0.08-0.13-0.15-0.27-0.23-0.4c-0.04-0.06-0.07-0.13-0.07-0.2
		c0-0.07,0.03-0.13,0.05-0.19c0.05-0.18,0-0.37-0.05-0.55c-0.07-0.24-0.15-0.5-0.35-0.66c-0.26-0.21-0.51-0.14-0.85-0.12
		c-1.91,0.09-2.91,2-4.87,2c-5,0-11-1-16,3c-5,4-9,8-15,12c-1,1-1,2-2,3c-5.69,3.8-11.39,8.71-17.3,11.88"/>
	<path class="st0" d="M1223.12,121.18c0-0.01,0-0.03,0-0.05l-0.12,0.02C1223.03,121.17,1223.08,121.17,1223.12,121.18z"/>
	<path class="st0" d="M1223.14,121.13c-0.04-1.62,0.31-4.61,0.29-6.2c-0.01-0.53,0-1.11,0.31-1.55c0.32-0.46,1.03-0.54,1.41-0.13
		c0.79,0.84,2.28,0.65,3.36,1.06c0.85,0.32,1.71,0.65,2.61,0.82c2.01,0.39,4.07-0.01,6.11-0.22c4.98-0.5,10.07,0.2,14.74,1.99
		c1.74,0.14,3.52-0.24,5.04-1.09c-0.23,1.46,1.91,2.6,2.99,1.59c0.88-0.82,0.91-2.47,2.04-2.87c0.69-0.24,1.48,0.14,2.18-0.08
		c1.48-0.45,1.9-2.73,3.4-2.33c1.28-0.3,2.74-0.1,3.95-0.61c2.15-0.91,4.9-0.01,6.1,2c0.34,0.57,0.59,1.24,1.15,1.59
		c0.56,0.35,2.23-0.71,2.16-1.36c0.23-0.12,0.47-0.24,0.7-0.36c2.06-1.05,3.32,1.52,4.52,3.5c0.13,0.22,0.26,0.46,0.26,0.72
		c0,0.3-0.16,0.57-0.24,0.86c-0.31,1.21,0.87,2.25,1.28,3.43c0.21,0.61,0.22,1.26,0.24,1.9c0.08,2.87,0.43,5.74,1.05,8.55
		c0.39,1.77,1.29,3.86,3.09,4c0.89-1.84,2.44-3.35,4.3-4.19c0.48-1.58,2.41-2.7,3.9-3.4c1.49-0.7,3.13-1.79,3.19-3.43
		c0.02-0.41-0.07-0.83-0.02-1.24c0.11-0.77,0.7-1.38,1.3-1.88c2.2-1.82,4.93-3,7.77-3.36c0.03,0.92,0.39,2.15,1.3,2.07
		c1.96-0.17,0.29-3.72,3.49-2.14c1.2,0.6,2.39,1.32,3.17,2.41c0.78,1.09,1.08,2.62,0.42,3.79c-0.02,0.03-0.03,0.04-0.05,0.06
		c-0.16,1.89-0.2,3.78-0.11,5.68c0.19,3.95,1,7.5,0.97,11.46c-0.02,2.09-0.36,4.17-0.7,6.23c-0.5,3.04-1,6.09-1.5,9.13
		c0,0-0.28,1.72-0.46,2.81c0,0-0.06,0.37-0.14,0.87c0,0-0.46,2.8-0.46,2.8c-0.95,5.78-0.02,11.89,3.39,16.65
		c0.01,0.02,0.02,0.03,0.04,0.05c1.41,1.86,4.67,0.33,6.58,1.67c0.77,0.54,1.17,1.44,1.65,2.24c2.07,3.45,6.05,5.36,10.02,6.05
		c3.97,0.69,8.03,0.35,12.05,0.34c4.71-0.01,9.42,0.44,14.05,1.34"/>
</g>
</svg>
